<svg version="1.1" id="Layer_1" xmlns="http://www.w3.org/2000/svg" xmlns:xlink="http://www.w3.org/1999/xlink" x="0px" y="0px"
	 width="100%" viewBox="0 0 695 768" enable-background="new 0 0 695 768" xml:space="preserve">
<path fill="#659AD2" opacity="1.000000" stroke="none" 
	d="
M1.000000,570.000000 
	C1.000000,446.645782 1.000000,323.291534 1.285981,199.794434 
	C2.055396,198.855179 2.647377,198.104507 3.004973,197.255173 
	C5.709632,190.831253 9.071831,184.700699 15.169340,181.061996 
	C30.104738,172.149292 45.222439,163.537918 60.355808,154.962402 
	C73.088989,147.746964 85.988480,140.825485 98.741829,133.645065 
	C121.983604,120.559456 145.128754,107.301903 168.395782,94.261581 
	C186.698685,84.003479 205.170502,74.046921 223.483200,63.806061 
	C244.359894,52.131367 265.087769,40.190132 285.985413,28.553455 
	C301.883057,19.700972 317.947327,11.147777 333.908905,2.409177 
	C334.130127,2.288062 333.977936,1.484856 334.000000,1.000000 
	C343.020905,1.000000 352.041779,1.000000 361.195587,1.273238 
	C364.473755,3.135677 367.681854,4.612765 370.753418,6.333552 
	C383.771332,13.626664 396.748352,20.992744 409.740967,28.331064 
	C428.412048,38.876633 447.041534,49.496700 465.767670,59.943562 
	C482.112823,69.062126 498.596313,77.932358 514.966064,87.007217 
	C537.893860,99.717621 560.774841,112.512573 583.672241,125.277664 
	C612.841675,141.539383 642.059631,157.715240 671.132263,174.148270 
	C677.145508,177.547180 683.711853,180.655563 686.374878,187.743286 
	C661.904480,201.514069 637.798096,215.240265 613.654602,228.901062 
	C598.776794,237.319199 583.842529,245.637543 568.644226,253.830750 
	C553.982483,230.197418 536.839844,209.004745 515.713562,191.313690 
	C451.221008,137.308029 377.431519,118.166237 295.066254,134.810349 
	C238.292984,146.282913 190.884018,174.990677 153.670654,219.281616 
	C101.845955,280.962830 83.401413,352.111816 96.743591,431.478516 
	C101.337944,458.808228 111.151558,484.367096 123.788467,508.810638 
	C122.087265,509.542419 120.724876,510.161041 119.430412,510.898804 
	C83.073997,531.620117 46.730530,552.364136 10.352628,573.047668 
	C8.834124,573.911072 7.005285,574.228699 5.302050,574.801880 
	C5.283090,574.803162 5.246128,574.810425 5.305180,574.497803 
	C4.946124,573.759033 4.528016,573.332947 4.081064,572.956360 
	C4.052219,573.005920 4.138025,572.929810 4.191511,572.609009 
	C3.913174,571.744385 3.581351,571.200500 3.031516,570.287720 
	C2.209002,569.945801 1.604501,569.972900 1.000000,570.000000 
z"/>
<path fill="#00599C" opacity="1.000000" stroke="none" 
	d="
M568.933594,254.000671 
	C583.842529,245.637543 598.776794,237.319199 613.654602,228.901062 
	C637.798096,215.240265 661.904480,201.514069 686.702393,187.931702 
	C689.567444,191.414001 691.721863,194.803619 693.972595,198.128006 
	C694.474731,198.869583 695.315308,199.382034 696.000000,200.000000 
	C696.000000,323.020905 696.000000,446.041779 695.636169,569.388672 
	C694.116577,571.794312 692.960815,573.874023 691.416992,575.966919 
	C689.172913,575.422180 687.160889,575.155701 685.485840,574.259338 
	C673.632385,567.915894 661.821716,561.490967 650.047791,555.000671 
	C632.171997,545.146912 614.372009,535.155212 596.469360,525.350769 
	C588.044556,520.736877 579.455688,516.422485 570.785889,511.669556 
	C534.255249,491.303406 497.883026,471.234406 461.487549,451.207672 
	C460.536377,450.684265 459.332031,450.621002 458.049072,450.032440 
	C454.582642,447.806763 451.352966,445.819336 448.037018,443.988068 
	C412.319031,424.262512 376.587433,404.561615 341.087708,384.601990 
	C364.965759,370.844788 388.637390,357.377350 412.257721,343.820587 
	C427.218719,335.233826 442.103333,326.514008 457.384338,317.891785 
	C458.359436,317.717194 459.024231,317.595459 459.577972,317.279266 
	C495.199219,296.938416 530.814026,276.586365 566.410156,256.201447 
	C567.359924,255.657562 568.097168,254.742584 568.933594,254.000671 
z"/>
<path fill="#004482" opacity="1.000000" stroke="none" 
	d="
M570.941162,511.972382 
	C579.455688,516.422485 588.044556,520.736877 596.469360,525.350769 
	C614.372009,535.155212 632.171997,545.146912 650.047791,555.000671 
	C661.821716,561.490967 673.632385,567.915894 685.485840,574.259338 
	C687.160889,575.155701 689.172913,575.422180 691.373657,576.302002 
	C687.422974,583.467834 681.848633,588.837097 674.675659,592.768127 
	C654.699951,603.715576 634.832825,614.862793 614.980896,626.034363 
	C584.204285,643.353760 553.504639,660.810059 522.716858,678.109558 
	C501.847992,689.835632 480.852814,701.336670 459.970184,713.038330 
	C430.442963,729.583862 400.963257,746.214417 371.475159,762.829834 
	C367.945251,764.818787 364.489899,766.940063 361.000000,769.000000 
	C352.645782,769.000000 344.291534,769.000000 335.535370,768.634094 
	C332.855164,767.055969 330.543732,765.901794 328.304504,764.621277 
	C319.419556,759.540710 310.611084,754.324158 301.675232,749.335266 
	C283.360107,739.109741 264.931671,729.086731 246.640289,718.819275 
	C221.002670,704.428101 195.478790,689.834351 169.847137,675.432556 
	C149.256989,663.863342 128.542923,652.514771 107.948692,640.952820 
	C79.148552,624.783997 50.397026,608.528381 21.651184,592.263062 
	C14.409092,588.165283 7.718699,583.468140 5.321012,574.800598 
	C7.005285,574.228699 8.834124,573.911072 10.352628,573.047668 
	C46.730530,552.364136 83.073997,531.620117 119.430412,510.898804 
	C120.724876,510.161041 122.087265,509.542419 124.045898,509.045197 
	C142.981903,542.004089 167.151398,569.693298 197.594452,591.646057 
	C251.930817,630.828491 312.557892,646.671509 379.129944,639.057556 
	C425.688507,633.732605 467.433990,616.295471 504.590637,587.826294 
	C531.780457,566.993591 553.627502,541.458496 570.941162,511.972382 
z"/>
<path fill="#000000" opacity="1.000000" stroke="none" 
	d="
M5.302053,574.801880 
	C7.718699,583.468140 14.409092,588.165283 21.651184,592.263062 
	C50.397026,608.528381 79.148552,624.783997 107.948692,640.952820 
	C128.542923,652.514771 149.256989,663.863342 169.847137,675.432556 
	C195.478790,689.834351 221.002670,704.428101 246.640289,718.819275 
	C264.931671,729.086731 283.360107,739.109741 301.675232,749.335266 
	C310.611084,754.324158 319.419556,759.540710 328.304504,764.621277 
	C330.543732,765.901794 332.855164,767.055969 335.066711,768.634094 
	C223.758087,769.000000 112.516167,769.000000 1.000000,769.000000 
	C1.000000,702.979370 1.000000,636.958313 1.000000,570.468628 
	C1.604501,569.972900 2.209002,569.945801 2.963155,570.637817 
	C3.454540,571.881226 3.796273,572.405518 4.138016,572.929810 
	C4.138025,572.929810 4.052219,573.005920 4.067583,573.281860 
	C4.470666,573.975342 4.858387,574.392883 5.246118,574.810425 
	C5.246128,574.810425 5.283090,574.803162 5.302053,574.801880 
z"/>
<path fill="#000000" opacity="1.000000" stroke="none" 
	d="
M361.468658,769.000000 
	C364.489899,766.940063 367.945251,764.818787 371.475159,762.829834 
	C400.963257,746.214417 430.442963,729.583862 459.970184,713.038330 
	C480.852814,701.336670 501.847992,689.835632 522.716858,678.109558 
	C553.504639,660.810059 584.204285,643.353760 614.980896,626.034363 
	C634.832825,614.862793 654.699951,603.715576 674.675659,592.768127 
	C681.848633,588.837097 687.422974,583.467834 691.761719,576.288818 
	C692.960815,573.874023 694.116577,571.794312 695.636169,569.857300 
	C696.000000,636.278931 696.000000,702.557922 696.000000,769.000000 
	C584.645813,769.000000 473.291565,769.000000 361.468658,769.000000 
z"/>
<path fill="#000000" opacity="1.000000" stroke="none" 
	d="
M696.000000,199.531342 
	C695.315308,199.382034 694.474731,198.869583 693.972595,198.128006 
	C691.721863,194.803619 689.567444,191.414001 687.050720,187.859528 
	C683.711853,180.655563 677.145508,177.547180 671.132263,174.148270 
	C642.059631,157.715240 612.841675,141.539383 583.672241,125.277664 
	C560.774841,112.512573 537.893860,99.717621 514.966064,87.007217 
	C498.596313,77.932358 482.112823,69.062126 465.767670,59.943562 
	C447.041534,49.496700 428.412048,38.876633 409.740967,28.331064 
	C396.748352,20.992744 383.771332,13.626664 370.753418,6.333552 
	C367.681854,4.612765 364.473755,3.135677 361.664246,1.273238 
	C473.241882,1.000000 584.483765,1.000000 696.000000,1.000000 
	C696.000000,67.020638 696.000000,133.041656 696.000000,199.531342 
z"/>
<path fill="#000000" opacity="1.000000" stroke="none" 
	d="
M333.531372,1.000000 
	C333.977936,1.484856 334.130127,2.288062 333.908905,2.409177 
	C317.947327,11.147777 301.883057,19.700972 285.985413,28.553455 
	C265.087769,40.190132 244.359894,52.131367 223.483200,63.806061 
	C205.170502,74.046921 186.698685,84.003479 168.395782,94.261581 
	C145.128754,107.301903 121.983604,120.559456 98.741829,133.645065 
	C85.988480,140.825485 73.088989,147.746964 60.355808,154.962402 
	C45.222439,163.537918 30.104738,172.149292 15.169340,181.061996 
	C9.071831,184.700699 5.709632,190.831253 3.004973,197.255173 
	C2.647377,198.104507 2.055396,198.855179 1.285981,199.325775 
	C1.000000,133.054413 1.000000,67.108826 1.000000,1.000000 
	C111.687508,1.000000 222.375092,1.000000 333.531372,1.000000 
z"/>
<path fill="#FFFFFF" opacity="1.000000" stroke="none" 
	d="
M570.785889,511.669556 
	C553.627502,541.458496 531.780457,566.993591 504.590637,587.826294 
	C467.433990,616.295471 425.688507,633.732605 379.129944,639.057556 
	C312.557892,646.671509 251.930817,630.828491 197.594452,591.646057 
	C167.151398,569.693298 142.981903,542.004089 124.416367,508.987549 
	C111.151558,484.367096 101.337944,458.808228 96.743591,431.478516 
	C83.401413,352.111816 101.845955,280.962830 153.670654,219.281616 
	C190.884018,174.990677 238.292984,146.282913 295.066254,134.810349 
	C377.431519,118.166237 451.221008,137.308029 515.713562,191.313690 
	C536.839844,209.004745 553.982483,230.197418 568.644226,253.830750 
	C568.097168,254.742584 567.359924,255.657562 566.410156,256.201447 
	C530.814026,276.586365 495.199219,296.938416 459.577972,317.279266 
	C459.024231,317.595459 458.359436,317.717194 457.332794,317.554260 
	C427.292236,268.157166 365.215057,245.254501 309.928375,262.948334 
	C248.956009,282.461792 211.693405,343.190796 222.245026,406.194183 
	C224.474030,419.503510 228.195786,432.429565 235.499939,444.432709 
	C235.902908,445.561768 236.180389,446.351654 236.579193,447.074554 
	C267.272736,502.715912 335.132843,527.495422 394.403809,504.439850 
	C421.808838,493.779694 443.382141,475.948090 458.245789,450.343140 
	C459.332031,450.621002 460.536377,450.684265 461.487549,451.207672 
	C497.883026,471.234406 534.255249,491.303406 570.785889,511.669556 
z"/>
<path fill="#004482" opacity="1.000000" stroke="none" 
	d="
M4.191501,572.609009 
	C3.796273,572.405518 3.454540,571.881226 3.181168,571.006775 
	C3.581351,571.200500 3.913174,571.744385 4.191501,572.609009 
z"/>
<path fill="#004482" opacity="1.000000" stroke="none" 
	d="
M5.305169,574.497803 
	C4.858387,574.392883 4.470666,573.975342 4.096427,573.232300 
	C4.528016,573.332947 4.946124,573.759033 5.305169,574.497803 
z"/>
<path fill="#659AD2" opacity="1.000000" stroke="none" 
	d="
M235.431076,444.062256 
	C228.195786,432.429565 224.474030,419.503510 222.245026,406.194183 
	C211.693405,343.190796 248.956009,282.461792 309.928375,262.948334 
	C365.215057,245.254501 427.292236,268.157166 456.970673,317.516388 
	C442.103333,326.514008 427.218719,335.233826 412.257721,343.820587 
	C388.637390,357.377350 364.965759,370.844788 340.754944,384.704041 
	C315.604340,399.061829 291.041473,413.113007 266.412140,427.046661 
	C256.158173,432.847656 245.762375,438.397949 235.431076,444.062256 
z"/>
<path fill="#014482" opacity="1.000000" stroke="none" 
	d="
M235.499939,444.432709 
	C245.762375,438.397949 256.158173,432.847656 266.412140,427.046661 
	C291.041473,413.113007 315.604340,399.061829 340.526794,384.956024 
	C376.587433,404.561615 412.319031,424.262512 448.037018,443.988068 
	C451.352966,445.819336 454.582642,447.806763 458.049072,450.032410 
	C443.382141,475.948090 421.808838,493.779694 394.403809,504.439850 
	C335.132843,527.495422 267.272736,502.715912 236.579193,447.074554 
	C236.180389,446.351654 235.902908,445.561768 235.499939,444.432709 
z"/>
</svg>