<svg version="1.1" id="Layer_1" xmlns="http://www.w3.org/2000/svg" xmlns:xlink="http://www.w3.org/1999/xlink" x="0px" y="0px"
	 width="100%" viewBox="0 0 200 200" enable-background="new 0 0 200 200" xml:space="preserve">
<path fill="#000000" opacity="1.000000" stroke="none" 
	d="
M107.000000,1.000000 
	C138.260254,1.000000 169.520508,1.000000 201.000000,1.000000 
	C201.000000,32.020550 201.000000,63.041618 200.776031,94.859161 
	C200.081726,95.419983 199.611420,95.184319 198.990662,94.646149 
	C194.932617,90.548363 191.024994,86.753075 186.980133,82.652122 
	C184.601532,80.218246 182.360168,78.090042 179.979736,75.653793 
	C176.820480,72.320656 173.428192,69.579224 170.859665,66.209824 
	C165.924622,59.736038 154.238846,60.625904 151.078964,70.428688 
	C151.067291,72.227356 151.116165,73.613945 151.094421,75.371796 
	C152.011566,81.726944 157.303223,84.255768 161.079163,88.411621 
	C164.460342,91.851242 167.710907,94.985466 171.100037,98.431122 
	C171.452301,100.481934 171.666016,102.221306 171.576248,104.091743 
	C168.475433,107.135574 165.678085,110.048355 162.578827,113.091492 
	C160.146561,115.466568 158.016205,117.711304 155.574249,120.096817 
	C153.896866,122.824295 152.531067,125.410995 151.095779,128.401215 
	C152.589844,131.965729 153.456848,135.868500 155.865112,138.129929 
	C160.561981,142.540390 167.475983,140.563004 173.407684,133.918076 
	C175.841797,131.540237 177.974503,129.296524 180.408218,126.919144 
	C182.821976,124.560432 184.934738,122.335381 187.353561,119.970070 
	C190.475235,116.903992 193.290848,113.978180 196.426620,110.902283 
	C198.164536,109.501472 199.582275,108.250740 201.000000,107.000000 
	C201.000000,138.260254 201.000000,169.520508 201.000000,201.000000 
	C169.979446,201.000000 138.958389,201.000000 107.141129,200.752655 
	C110.567825,196.282883 114.790710,192.060440 119.277565,187.865387 
	C119.738640,187.610260 119.935753,187.327774 120.422180,186.925201 
	C121.824791,185.579147 122.938095,184.353180 124.360497,182.984177 
	C127.117561,180.173233 129.565536,177.505325 132.277893,174.864716 
	C132.739563,174.608826 132.936844,174.325623 133.414688,173.931442 
	C134.479660,172.922546 135.264038,172.024628 136.357849,170.983856 
	C139.116165,168.173065 141.565063,165.505157 144.278229,162.865448 
	C144.739380,162.610367 144.936295,162.327087 145.397705,161.947601 
	C146.124374,161.277206 146.586563,160.702988 147.337311,159.990265 
	C147.795074,159.246155 147.964249,158.640549 148.369629,157.955948 
	C148.945099,157.651474 149.020538,157.358154 149.011810,156.643875 
	C150.525375,151.582153 148.482376,145.716690 144.682541,143.345535 
	C140.582504,140.787048 134.033005,141.427292 130.723083,144.776581 
	C128.067810,147.463425 125.482521,150.219421 122.562210,153.076462 
	C118.126976,157.453720 113.995705,161.699249 109.559479,166.078033 
	C100.808250,174.637512 100.806580,174.639114 92.731476,166.176468 
	C92.396935,165.825882 92.148918,165.392746 91.891968,164.730560 
	C91.630440,164.277847 91.337532,164.092651 91.035461,163.941406 
	C91.026299,163.975372 91.092804,163.952408 91.016106,163.694946 
	C90.629204,163.337921 90.319008,163.238388 89.725113,163.021927 
	C88.671005,162.254318 87.900581,161.603638 86.989830,160.645325 
	C81.277779,154.877731 75.706062,149.417770 70.046921,143.720016 
	C69.682800,143.308853 69.406105,143.135498 69.074577,142.651291 
	C68.708206,141.862976 68.396667,141.385529 68.058609,140.931290 
	C68.032082,140.954514 68.099312,140.975754 68.022171,140.710083 
	C67.637001,140.263367 67.328972,140.082336 67.021461,139.939957 
	C67.021988,139.978592 67.099205,139.975754 67.022095,139.710068 
	C66.636963,139.263412 66.328926,139.082458 66.021416,138.940063 
	C66.021935,138.978638 66.099030,138.975815 66.021973,138.710144 
	C65.636902,138.263519 65.328873,138.082581 65.021347,137.940170 
	C65.021843,137.978683 65.098831,137.975906 65.021820,137.710236 
	C64.636826,137.263626 64.328827,137.082703 64.021301,136.940247 
	C64.021767,136.978714 64.098663,136.976028 64.021721,136.710358 
	C63.637318,136.262314 63.329865,136.079941 63.021843,135.937195 
	C63.021271,135.976837 63.100544,135.976151 63.021122,135.711639 
	C62.635170,135.263458 62.328636,135.079773 62.022423,134.936569 
	C62.022743,134.977051 62.103661,134.974564 62.022697,134.710632 
	C61.635185,134.263168 61.328636,134.079636 61.022408,133.936584 
	C61.022728,133.977066 61.103638,133.974579 61.022640,133.710663 
	C60.635120,133.263229 60.328602,133.079681 60.022408,132.936600 
	C60.022736,132.977066 60.103630,132.974564 60.022598,132.710678 
	C59.635056,132.263245 59.328545,132.079712 59.022377,131.936646 
	C59.022724,131.977112 59.103634,131.974564 59.022594,131.710678 
	C58.635048,131.263245 58.328541,131.079697 58.022373,130.936630 
	C58.022713,130.977112 58.103638,130.974579 58.022602,130.710693 
	C57.635059,130.263260 57.328552,130.079712 57.022392,129.936630 
	C57.022736,129.977097 57.103638,129.974579 57.022602,129.710693 
	C56.635052,129.263290 56.328537,129.079758 56.022369,128.936691 
	C56.022717,128.977158 56.103607,128.974609 56.022587,128.710724 
	C55.635048,128.263290 55.328529,128.079773 55.022346,127.936707 
	C55.022686,127.977158 55.103554,127.974625 55.022560,127.710732 
	C54.635040,127.263329 54.328518,127.079819 54.022339,126.936737 
	C54.022686,126.977173 54.103519,126.974625 54.022537,126.710724 
	C53.635036,126.263329 53.328518,126.079834 53.036865,125.927399 
	C53.051731,125.958473 53.091557,125.902130 52.962009,125.600372 
	C50.939140,123.517982 49.045818,121.737350 47.046867,119.698975 
	C46.630283,119.254486 46.319332,119.067749 46.009937,118.934807 
	C46.011490,118.988609 46.119057,118.984558 46.030735,118.718369 
	C45.632324,118.261589 45.322231,118.070984 45.012444,117.933411 
	C45.012749,117.986435 45.118786,117.984756 45.030640,117.718483 
	C44.632359,117.261627 44.322227,117.071053 44.012390,116.933487 
	C44.012684,116.986504 44.118702,116.984840 44.030609,116.718536 
	C43.632378,116.261642 43.322235,116.071060 43.012367,115.933495 
	C43.012650,115.986511 43.118668,115.984871 43.030586,115.718567 
	C42.632362,115.261688 42.322212,115.071121 42.012348,114.933548 
	C42.012634,114.986526 42.118595,114.984894 42.030548,114.718582 
	C41.632359,114.261711 41.322220,114.071144 41.012352,113.933548 
	C41.012627,113.986519 41.118557,113.984901 41.030510,113.718597 
	C40.632336,113.261726 40.322208,113.071159 40.012371,112.933533 
	C40.012661,112.986465 40.118523,112.984810 40.030502,112.718559 
	C39.632843,112.260735 39.323208,112.069160 39.012695,111.931389 
	C39.011818,111.985191 39.119431,111.985863 39.027935,111.721741 
	C38.628502,111.264618 38.320568,111.071617 38.012817,110.931976 
	C38.013004,110.985344 38.119717,110.983841 38.027802,110.720230 
	C37.628181,110.263954 37.320473,110.071297 37.012901,109.931976 
	C37.013035,109.985306 37.119678,109.983894 37.027771,109.720276 
	C36.628159,109.264000 36.320454,109.071342 36.012886,108.931992 
	C36.013023,108.985313 36.119652,108.983902 36.027740,108.720291 
	C35.628132,108.264023 35.320435,108.071365 35.016632,107.927567 
	C35.020527,107.976425 35.118095,107.966850 35.026878,107.713608 
	C34.624695,107.359924 34.313725,107.259483 33.716278,107.033936 
	C32.903328,106.276573 32.376850,105.644325 31.840130,104.680283 
	C30.901875,102.939140 29.973862,101.529793 29.301788,100.027199 
	C29.739567,99.629982 29.921406,99.326012 30.063534,99.024094 
	C30.023823,99.026154 30.029980,99.105446 30.290714,99.021454 
	C30.731447,98.632294 30.911446,98.327126 31.056282,98.021423 
	C31.021116,98.020889 31.025591,98.091080 31.288090,98.013489 
	C31.730753,97.631424 31.910919,97.326950 32.056046,97.021568 
	C32.021004,97.020653 32.025448,97.090614 32.287994,97.013229 
	C32.730663,96.631386 32.910782,96.326920 33.055885,96.021484 
	C33.020870,96.020523 33.025360,96.090431 33.287941,96.013138 
	C33.730621,95.631363 33.910728,95.326889 34.055824,95.021446 
	C34.020817,95.020477 34.025307,95.090378 34.287907,95.013107 
	C34.730598,94.631340 34.910690,94.326843 35.055771,94.021393 
	C35.020760,94.020439 35.025246,94.090340 35.287865,94.013084 
	C35.730545,93.631310 35.910610,93.326790 36.056610,93.034241 
	C36.022545,93.046204 36.088711,93.075150 36.396580,92.947556 
	C41.484386,87.923866 46.264324,83.027763 51.305359,78.039261 
	C51.747112,77.636284 51.927761,77.325699 52.076279,77.029175 
	C52.044144,77.043228 52.091331,77.095123 52.399605,76.966278 
	C56.485283,72.944702 60.262688,69.051987 64.348511,65.017059 
	C69.119080,60.287270 73.581223,55.699699 78.354141,50.979286 
	C82.480370,46.913315 86.295830,42.980183 90.419250,38.921829 
	C93.836327,35.566601 96.945435,32.336590 100.417526,29.060017 
	C103.483864,31.024410 106.187225,33.035370 109.025665,35.353176 
	C111.423500,37.808975 113.686256,39.957928 116.078262,42.410805 
	C118.454491,44.845009 120.701462,46.975292 123.076797,49.409317 
	C125.432724,51.823734 127.660278,53.934414 130.036774,56.369396 
	C135.074356,61.097996 141.348969,61.786217 145.694916,58.002216 
	C150.114090,54.154469 151.914856,49.043129 146.986221,41.637833 
	C143.911346,38.514172 140.975754,35.697632 137.913574,32.575729 
	C135.190887,29.898537 132.594772,27.526701 129.704895,25.026058 
	C128.305206,23.915905 127.199272,22.934561 125.960274,21.638626 
	C119.444672,14.893743 113.058418,8.467117 106.708008,2.005261 
	C106.588310,1.883464 106.893211,1.344387 107.000000,1.000000 
M119.820786,85.313217 
	C112.295494,78.749306 104.124191,74.785515 93.207077,78.979889 
	C90.418884,80.637192 87.630699,82.294495 84.244240,84.221649 
	C83.217903,85.813812 82.191566,87.405968 80.856346,89.631332 
	C80.219627,91.052773 79.582909,92.474213 78.262405,94.318764 
	C78.159958,97.254677 78.057503,100.190590 77.992294,103.885345 
	C78.289993,105.271255 78.587700,106.657158 78.980354,108.778137 
	C79.948692,110.867653 80.917030,112.957169 82.178825,115.683838 
	C87.728722,124.061401 101.213173,128.505844 113.215797,122.257645 
	C114.823036,121.218147 116.430283,120.178658 118.668648,118.855164 
	C120.057022,116.568375 121.445396,114.281586 123.168106,111.323692 
	C123.723640,109.214928 124.279175,107.106163 125.173820,104.315994 
	C125.401833,102.881569 125.629837,101.447136 125.752846,99.261520 
	C125.113304,97.173561 124.473763,95.085602 123.767197,92.309952 
	C122.465446,90.208649 121.163689,88.107353 119.820786,85.313217 
z"/>
<path fill="#000000" opacity="1.000000" stroke="none" 
	d="
M95.000000,201.000000 
	C63.739746,201.000000 32.479492,201.000000 1.000000,201.000000 
	C1.000000,169.979446 1.000000,138.958389 1.247697,107.131332 
	C1.982076,106.591072 2.468757,106.856804 3.052827,107.388290 
	C3.485744,108.098122 3.821273,108.542183 4.122627,109.259979 
	C4.381550,109.739052 4.674646,109.944389 5.028077,110.371735 
	C5.266979,110.878662 5.524339,111.025368 5.963522,111.291718 
	C6.374362,111.740509 6.682172,111.931427 6.988370,112.068336 
	C6.986758,112.014328 6.878779,112.018669 6.969493,112.283142 
	C7.368920,112.739273 7.677631,112.930946 7.986179,113.069031 
	C7.986015,113.015450 7.878852,113.016968 7.969288,113.281830 
	C8.368569,113.738647 8.677415,113.930603 8.987247,114.068176 
	C8.988236,114.013779 8.879432,114.012825 8.970518,114.276733 
	C9.363977,114.742966 9.666350,114.945290 10.097438,115.451042 
	C13.468349,118.883713 16.710546,122.012947 20.013630,125.363556 
	C20.249338,125.872719 20.505066,126.020668 20.951372,126.287872 
	C21.374748,126.735191 21.688450,126.923439 21.998455,127.055481 
	C21.994759,126.999275 21.882364,127.006851 21.969599,127.275673 
	C22.370277,127.733429 22.683722,127.922363 22.996639,128.057480 
	C22.996113,128.003662 22.888481,128.005035 22.972973,128.274628 
	C23.370687,128.733322 23.683908,128.922424 23.996593,129.057617 
	C23.996059,129.003723 23.888260,129.005112 23.972910,129.274780 
	C24.370632,129.734604 24.683704,129.924759 24.997299,130.059799 
	C24.997824,130.004669 24.887548,130.003891 24.974720,130.272156 
	C25.373875,130.731598 25.685858,130.922791 25.997375,131.058701 
	C25.996914,131.003433 25.886375,131.004623 25.974148,131.272644 
	C26.373854,131.731827 26.685783,131.922989 26.997276,132.058823 
	C26.996840,132.003510 26.886217,132.004654 26.974075,132.272644 
	C27.373863,132.731812 27.685789,132.923004 27.997272,133.058868 
	C27.996826,133.003540 27.886160,133.004684 27.974060,133.272659 
	C28.373884,133.731812 28.685808,133.922989 28.997288,134.058838 
	C28.996843,134.003510 28.886185,134.004669 28.974073,134.272644 
	C29.373892,134.731781 29.685822,134.922928 29.997311,135.058792 
	C29.996872,135.003494 29.886274,135.004654 29.974127,135.272629 
	C30.373907,135.731735 30.685835,135.922867 30.997318,136.058746 
	C30.996874,136.003494 30.886360,136.004639 30.974174,136.272614 
	C31.373917,136.731720 31.685844,136.922836 31.997330,137.058716 
	C31.996887,137.003479 31.886404,137.004623 31.974197,137.272614 
	C32.373913,137.731720 32.685837,137.922852 32.997314,138.058716 
	C32.996872,138.003464 32.886372,138.004639 32.974174,138.272614 
	C33.373901,138.731750 33.685822,138.922897 33.997307,139.058777 
	C33.996872,139.003494 33.886322,139.004639 33.974152,139.272629 
	C34.373901,139.731781 34.685818,139.922943 34.997292,140.058807 
	C34.996857,140.003510 34.886250,140.004654 34.974113,140.272644 
	C35.373894,140.731781 35.685814,140.922958 35.997292,141.058823 
	C35.996853,141.003510 35.886223,141.004669 35.974098,141.272644 
	C36.373890,141.731796 36.685810,141.922958 36.997292,142.058823 
	C36.996845,142.003510 36.886215,142.004669 36.974083,142.272644 
	C37.373878,142.731796 37.685806,142.922974 37.991852,143.077911 
	C37.985973,143.041702 37.913967,143.055847 37.991997,143.306580 
	C38.361660,143.733734 38.653294,143.910156 38.955025,144.051025 
	C38.965118,144.015472 38.893440,143.997391 38.977039,144.267395 
	C39.366367,144.743256 39.672096,144.949127 40.037697,145.376450 
	C40.277515,145.880600 40.535011,146.025497 40.964989,146.273346 
	C41.356892,146.619202 41.653851,146.724289 42.266762,146.967255 
	C47.036808,151.780212 51.490906,156.455276 56.065598,161.419983 
	C57.413399,162.824738 58.640602,163.939880 59.965534,165.300049 
	C60.369297,165.643814 60.675335,165.742569 61.297756,165.984695 
	C65.389458,170.128296 69.164780,174.128525 73.061806,178.418365 
	C74.412277,179.824860 75.641029,180.941757 76.986465,182.334839 
	C77.736763,183.021103 78.370392,183.431213 79.316887,183.989380 
	C84.754982,189.281128 89.889969,194.415237 94.974709,199.598602 
	C95.212372,199.840866 95.001808,200.522827 95.000000,201.000000 
z"/>
<path fill="#000000" opacity="1.000000" stroke="none" 
	d="
M1.000001,95.000000 
	C1.000000,63.739742 1.000000,32.479485 1.000000,1.000000 
	C32.020550,1.000000 63.041618,1.000000 94.863777,1.227812 
	C94.093597,2.941141 92.522316,4.426658 90.700081,5.993559 
	C90.275085,6.368868 90.101059,6.662794 89.959213,6.974457 
	C89.991402,6.992194 89.952858,6.929606 89.700394,7.003741 
	C89.274590,7.370411 89.101250,7.662947 88.959885,7.974223 
	C88.991859,7.992963 88.952866,7.929935 88.700394,8.003929 
	C88.274704,8.370452 88.101486,8.662980 87.960175,8.974337 
	C87.992073,8.993164 87.952927,8.930265 87.700424,9.004114 
	C87.274818,9.370491 87.101715,9.663020 86.960442,9.974453 
	C86.992279,9.993357 86.952980,9.930594 86.700470,10.004295 
	C86.274948,10.370522 86.101952,10.663048 85.960724,10.974563 
	C85.992493,10.993551 85.953033,10.930922 85.700500,11.004476 
	C85.275078,11.370549 85.102180,11.663069 84.960976,11.974672 
	C84.992668,11.993757 84.953087,11.931245 84.700539,12.004656 
	C84.275185,12.370584 84.102379,12.663100 83.964333,12.968378 
	C83.999092,12.981140 83.950401,12.925312 83.697144,12.999228 
	C83.270340,13.366545 83.096802,13.659946 82.957016,13.974121 
	C82.990784,13.994895 82.944962,13.930212 82.691254,14.003443 
	C82.257210,14.370453 82.076881,14.664233 81.626053,15.053487 
	C80.888466,15.735813 80.421387,16.322666 79.702988,16.994543 
	C79.269897,17.372265 79.088142,17.664963 78.619316,18.064529 
	C77.539879,19.084188 76.747520,19.996973 75.703484,20.994678 
	C75.270027,21.372688 75.088234,21.665779 74.671585,22.024033 
	C74.135490,22.276793 73.976280,22.547819 73.665657,23.016804 
	C72.549385,24.066317 71.726562,25.001303 70.660042,26.011248 
	C70.253036,26.374170 70.089722,26.662134 69.960449,26.971653 
	C69.994484,26.993212 69.945923,26.928898 69.693665,27.000639 
	C69.270164,27.364441 69.098923,27.656502 68.961464,27.971394 
	C68.995247,27.994225 68.945816,27.929342 68.693581,28.000902 
	C68.270256,28.364464 68.099167,28.656467 67.961807,28.971487 
	C67.995522,28.994505 67.945755,28.929750 67.693535,29.001139 
	C67.270340,29.364487 67.099373,29.656446 66.962097,29.971539 
	C66.995789,29.994673 66.945709,29.930044 66.693489,30.001320 
	C66.270355,30.364531 66.099434,30.656469 65.962158,30.971603 
	C65.995804,30.994801 65.945770,30.930162 65.693527,31.001387 
	C65.270355,31.364567 65.099442,31.656523 64.935287,31.951412 
	C64.942039,31.954346 64.900734,31.948711 64.591904,32.073318 
	C60.836330,35.766544 57.389591,39.335163 53.634384,43.038002 
	C48.526150,48.089962 43.726376,53.007702 38.950066,57.947655 
	C38.973522,57.969872 38.972404,57.905251 38.715797,57.989155 
	C38.268372,58.367195 38.077549,58.661335 37.587872,59.074615 
	C35.844051,60.755993 34.399086,62.318226 32.699825,63.973557 
	C32.259708,64.366203 32.073887,64.665749 31.925102,64.965561 
	C31.962139,64.965820 31.959700,64.891777 31.703493,64.979630 
	C31.261181,65.366257 31.075075,65.665031 30.925470,65.964340 
	C30.961973,65.964874 30.960041,65.891884 30.703724,65.979668 
	C30.261248,66.366310 30.075087,66.665176 29.925560,66.964569 
	C29.962191,66.965111 29.960297,66.891861 29.703873,66.979614 
	C29.261219,67.366341 29.074989,67.665314 28.925606,67.964813 
	C28.962452,67.965340 28.960562,67.891663 28.704018,67.979462 
	C28.261169,68.366371 28.074863,68.665482 27.922085,68.974358 
	C27.955612,68.984131 27.941923,68.915642 27.691757,68.993454 
	C27.265348,69.360954 27.089106,69.650650 26.946972,69.947235 
	C26.981079,69.954117 26.969887,69.885437 26.710339,69.975296 
	C26.261538,70.367989 26.072287,70.670815 25.927382,70.973862 
	C25.971727,70.974075 25.969940,70.885399 25.710361,70.975250 
	C25.261530,71.367966 25.072279,71.670822 24.927399,71.973907 
	C24.971771,71.974129 24.969992,71.885399 24.710382,71.975220 
	C24.261518,72.367928 24.072262,72.670815 23.927391,72.973923 
	C23.971777,72.974159 23.970018,72.885399 23.710411,72.975227 
	C23.261538,73.367920 23.072271,73.670776 22.927364,73.973892 
	C22.971724,73.974136 22.969995,73.885429 22.710461,73.975319 
	C22.261660,74.368004 22.072393,74.670792 21.928101,74.974289 
	C21.973078,74.974983 21.972368,74.885033 21.712767,74.974594 
	C21.257994,75.363441 21.062822,75.662720 20.586521,76.070908 
	C19.523769,77.077698 18.742153,77.975571 17.704885,78.970520 
	C17.262421,79.370636 17.075603,79.673676 16.931511,79.976372 
	C16.974234,79.976028 16.971512,79.890625 16.714466,79.982033 
	C16.269926,80.374405 16.082430,80.675377 15.934660,80.976562 
	C15.974386,80.976768 15.972795,80.897331 15.715071,80.985901 
	C15.269924,81.375000 15.082500,81.675529 14.934649,81.976334 
	C14.974221,81.976601 14.972748,81.897469 14.715044,81.985977 
	C14.269955,82.374985 14.082570,82.675484 13.934666,82.976242 
	C13.974146,82.976509 13.972667,82.897560 13.714998,82.986046 
	C13.269978,83.374985 13.082625,83.675430 12.934658,83.976151 
	C12.974044,83.976425 12.972559,83.897667 12.714935,83.986130 
	C12.270017,84.374977 12.082720,84.675377 11.929718,84.978447 
	C11.964012,84.981125 11.945304,84.914917 11.666098,85.019440 
	C10.895075,85.730766 10.403257,86.337578 9.944963,86.953003 
	C9.978485,86.961632 9.976362,86.892433 9.717563,86.982986 
	C9.269282,87.375626 9.079802,87.677704 8.934061,87.979919 
	C8.977801,87.980057 8.976336,87.892593 8.717556,87.983101 
	C8.269338,88.375664 8.079900,88.677719 7.934681,88.980278 
	C7.978899,88.980782 7.978253,88.892342 7.719342,88.982361 
	C7.265244,89.371071 7.070057,89.669754 6.648691,90.029724 
	C6.132799,90.271606 5.980171,90.532417 5.707225,90.970886 
	C5.263057,91.374092 5.076288,91.679863 4.932300,91.982201 
	C4.975080,91.978775 4.966339,91.893387 4.714845,91.981873 
	C4.364826,92.378242 4.266302,92.686134 3.997217,93.336273 
	C2.884438,94.119011 1.942220,94.559509 1.000001,95.000000 
z"/>
<path fill="#0D6CFF" opacity="1.000000" stroke="none" 
	d="
M95.460632,201.000000 
	C95.001808,200.522827 95.212372,199.840866 94.974709,199.598602 
	C89.889969,194.415237 84.754982,189.281128 79.218468,183.703186 
	C78.161385,182.865494 77.515587,182.462067 76.869797,182.058655 
	C75.641029,180.941757 74.412277,179.824860 73.227524,178.090057 
	C74.584732,176.748108 75.963196,175.300583 77.201004,175.412247 
	C89.199036,176.494720 101.228531,177.482758 113.121498,179.322342 
	C116.745094,179.882812 121.857033,177.889114 124.051399,183.127213 
	C122.938095,184.353180 121.824791,185.579147 120.214859,187.026154 
	C119.450005,187.404358 119.215134,187.601303 119.013603,187.838013 
	C114.790710,192.060440 110.567825,196.282883 106.672470,200.752655 
	C103.307091,201.000000 99.614182,201.000000 95.460632,201.000000 
z"/>
<path fill="#1281FF" opacity="1.000000" stroke="none" 
	d="
M4.156802,108.986244 
	C3.821273,108.542183 3.485744,108.098122 3.056328,107.105621 
	C2.308293,106.038124 1.654147,105.519066 1.000000,105.000000 
	C1.000000,104.555557 1.000000,104.111107 1.462170,103.333328 
	C11.899684,103.670692 21.875029,104.341385 31.850372,105.012077 
	C32.376850,105.644325 32.903328,106.276573 33.878372,107.199226 
	C34.567753,107.686676 34.831470,107.845749 35.118095,107.966850 
	C35.118095,107.966850 35.020527,107.976425 35.169258,108.142441 
	C35.585213,108.533607 35.852432,108.758759 36.119652,108.983902 
	C36.119652,108.983902 36.013023,108.985313 36.165512,109.146881 
	C36.585224,109.533600 36.852451,109.758743 37.119678,109.983894 
	C37.119678,109.983894 37.013035,109.985306 37.165524,110.146866 
	C37.585247,110.533569 37.852482,110.758705 38.119717,110.983841 
	C38.119717,110.983841 38.013004,110.985344 38.165771,111.146835 
	C38.585506,111.534164 38.852467,111.760017 39.119431,111.985863 
	C39.119431,111.985863 39.011818,111.985191 39.164101,112.147293 
	C39.583767,112.534538 39.851143,112.759674 40.118523,112.984810 
	C40.118523,112.984810 40.012661,112.986465 40.164780,113.148315 
	C40.584118,113.535088 40.851337,113.759995 41.118557,113.984901 
	C41.118557,113.984901 41.012627,113.986519 41.164768,114.148338 
	C41.584141,114.535065 41.851368,114.759979 42.118595,114.984894 
	C42.118595,114.984894 42.012634,114.986526 42.164780,115.148331 
	C42.584175,115.535049 42.851421,115.759956 43.118668,115.984871 
	C43.118668,115.984871 43.012650,115.986511 43.164791,116.148300 
	C43.584190,116.535004 43.851444,116.759926 44.118698,116.984840 
	C44.118702,116.984840 44.012684,116.986504 44.164825,117.148277 
	C44.584244,117.534950 44.851517,117.759857 45.118786,117.984756 
	C45.118786,117.984756 45.012749,117.986435 45.164909,118.148193 
	C45.584396,118.534828 45.851727,118.759697 46.119057,118.984558 
	C46.119057,118.984558 46.011490,118.988609 46.167969,119.147911 
	C46.600464,119.523712 46.876484,119.740219 47.152496,119.956718 
	C49.045818,121.737350 50.939140,123.517982 52.519188,125.625626 
	C44.661907,125.098129 37.134159,123.973839 29.566143,123.517860 
	C26.405771,123.327454 23.159796,124.557816 19.952744,125.142181 
	C16.710546,122.012947 13.468349,118.883713 9.950837,115.230713 
	C9.410160,114.475571 9.144798,114.244194 8.879435,114.012817 
	C8.879432,114.012825 8.988236,114.013779 8.835013,113.852798 
	C8.414145,113.466873 8.146500,113.241920 7.878853,113.016968 
	C7.878852,113.016968 7.986015,113.015450 7.833944,112.853851 
	C7.414175,112.467728 7.146476,112.243202 6.878778,112.018669 
	C6.878779,112.018669 6.986758,112.014328 6.831436,111.855118 
	C6.404240,111.475220 6.132366,111.254524 5.860493,111.033836 
	C5.524339,111.025368 5.266979,110.878662 4.924983,110.156479 
	C4.605270,109.437531 4.403686,109.193199 4.156802,108.986244 
z"/>
<path fill="#27C4FF" opacity="1.000000" stroke="none" 
	d="
M90.951042,5.912175 
	C92.522316,4.426658 94.093597,2.941141 95.332436,1.227812 
	C98.692909,1.000000 102.385818,1.000000 106.539368,1.000000 
	C106.893211,1.344387 106.588310,1.883464 106.708008,2.005261 
	C113.058418,8.467117 119.444672,14.893743 125.574844,21.648222 
	C124.550537,21.980145 123.778580,21.987879 122.715805,21.758495 
	C118.284286,21.349237 114.143578,21.177097 109.858818,20.655190 
	C108.544708,19.866646 107.408875,19.237940 106.199028,19.019983 
	C98.475853,17.628639 90.736397,16.327692 82.996384,14.729847 
	C82.975304,14.285204 82.960136,14.107708 82.944962,13.930212 
	C82.944962,13.930212 82.990784,13.994895 83.164093,13.841120 
	C83.596489,13.477383 83.800819,13.223372 83.950401,12.925312 
	C83.950401,12.925312 83.999092,12.981140 84.168320,12.833170 
	C84.593292,12.475168 84.798477,12.223850 84.953087,11.931245 
	C84.953087,11.931245 84.992668,11.993757 85.165001,11.839407 
	C85.593117,11.474956 85.798355,11.223577 85.953033,10.930922 
	C85.953033,10.930922 85.992493,10.993551 86.164780,10.839234 
	C86.592926,10.474752 86.798225,10.223311 86.952980,9.930594 
	C86.952980,9.930594 86.992279,9.993357 87.164551,9.839058 
	C87.592720,9.474523 87.798088,9.223024 87.952927,8.930265 
	C87.952927,8.930265 87.992073,8.993164 88.164314,8.838882 
	C88.592506,8.474296 88.797943,8.222740 88.952866,7.929935 
	C88.952866,7.929935 88.991859,7.992963 89.164078,7.838707 
	C89.592293,7.474073 89.797813,7.222458 89.952858,6.929606 
	C89.952858,6.929606 89.991402,6.992194 90.164291,6.835722 
	C90.594971,6.466107 90.799591,6.210415 90.951042,5.912175 
z"/>
<path fill="#1386FF" opacity="1.000000" stroke="none" 
	d="
M31.840130,104.680283 
	C21.875029,104.341385 11.899684,103.670692 1.462170,103.000000 
	C1.000000,100.629440 1.000000,98.258888 1.000001,95.444168 
	C1.942220,94.559509 2.884438,94.119011 4.159879,93.175705 
	C4.689445,92.436501 4.847191,92.176659 4.966339,91.893387 
	C4.966339,91.893387 4.975080,91.978775 5.144549,91.829735 
	C5.530887,91.411613 5.747756,91.142532 5.964624,90.873451 
	C5.980171,90.532417 6.132799,90.271606 6.863499,89.884430 
	C7.529076,89.416016 7.753664,89.154182 7.978253,88.892342 
	C7.978253,88.892342 7.978899,88.980782 8.146415,88.831146 
	C8.534732,88.418541 8.755534,88.155563 8.976336,87.892593 
	C8.976336,87.892593 8.977801,87.980057 9.145830,87.830772 
	C9.534695,87.418472 9.755528,87.155449 9.976362,86.892433 
	C9.976362,86.892433 9.978485,86.961632 10.292766,86.971771 
	C11.070629,86.987297 11.534212,86.992676 12.430027,87.000084 
	C19.282904,87.670341 25.740591,88.115440 32.096981,89.170700 
	C33.602142,89.420586 34.767204,91.719032 36.088711,93.075150 
	C36.088711,93.075150 36.022545,93.046204 35.851425,93.183640 
	C35.461952,93.577492 35.243595,93.833916 35.025246,94.090340 
	C35.025246,94.090340 35.020760,94.020439 34.850555,94.170761 
	C34.462006,94.577522 34.243656,94.833954 34.025307,95.090378 
	C34.025307,95.090378 34.020817,95.020477 33.850601,95.170807 
	C33.462044,95.577568 33.243702,95.834000 33.025360,96.090431 
	C33.025360,96.090431 33.020870,96.020523 32.850639,96.170853 
	C32.462090,96.577660 32.243767,96.834137 32.025448,97.090614 
	C32.025448,97.090614 32.021004,97.020653 31.850765,97.170982 
	C31.462214,97.577904 31.243902,97.834488 31.025591,98.091080 
	C31.025591,98.091080 31.021116,98.020889 30.850399,98.172546 
	C30.463116,98.584610 30.246546,98.845024 30.029978,99.105446 
	C30.029980,99.105446 30.023823,99.026154 29.856121,99.176498 
	C29.474228,99.591377 29.260038,99.855904 29.045849,100.120438 
	C29.973862,101.529793 30.901875,102.939140 31.840130,104.680283 
z"/>
<path fill="#F74C5C" opacity="1.000000" stroke="none" 
	d="
M199.141098,94.948647 
	C199.611420,95.184319 200.081726,95.419983 200.776031,95.327820 
	C201.000000,97.041664 201.000000,99.083336 200.603210,101.539200 
	C192.061081,99.957047 183.911636,97.977242 175.773117,95.953453 
	C173.550583,95.400772 171.432037,94.874626 170.961487,98.119690 
	C167.710907,94.985466 164.460342,91.851242 161.390900,88.167908 
	C163.990433,87.659233 166.497696,87.297897 168.811951,87.809517 
	C178.952179,90.051254 189.036499,92.545799 199.141098,94.948647 
z"/>
<path fill="#F74758" opacity="1.000000" stroke="none" 
	d="
M171.100037,98.431122 
	C171.432037,94.874626 173.550583,95.400772 175.773117,95.953453 
	C183.911636,97.977242 192.061081,99.957047 200.603210,101.976700 
	C201.000000,103.388893 201.000000,104.777779 201.000000,106.583344 
	C199.582275,108.250740 198.164536,109.501472 196.093628,110.742546 
	C187.586899,108.475494 179.733307,106.218094 171.879730,103.960686 
	C171.666016,102.221306 171.452301,100.481934 171.100037,98.431122 
z"/>
<path fill="#1386FF" opacity="1.000000" stroke="none" 
	d="
M1.000000,105.333328 
	C1.654147,105.519066 2.308293,106.038124 2.958940,106.839859 
	C2.468757,106.856804 1.982076,106.591072 1.247697,106.662674 
	C1.000000,106.555557 1.000000,106.111107 1.000000,105.333328 
z"/>
<path fill="#0E70FF" opacity="1.000000" stroke="none" 
	d="
M124.360497,182.984177 
	C121.857033,177.889114 116.745094,179.882812 113.121498,179.322342 
	C101.228531,177.482758 89.199036,176.494720 77.201004,175.412247 
	C75.963196,175.300583 74.584732,176.748108 73.105812,177.800446 
	C69.164780,174.128525 65.389458,170.128296 61.135712,165.822006 
	C60.419765,165.318390 60.156605,165.164749 59.867805,165.055023 
	C58.640602,163.939880 57.413399,162.824738 56.291763,161.095001 
	C60.058025,160.100372 63.732460,159.308563 67.376411,159.430191 
	C73.970589,159.650284 80.546577,160.415405 87.130157,160.952957 
	C87.900581,161.603638 88.671005,162.254318 89.880814,163.188370 
	C90.553589,163.670746 90.811127,163.830978 91.092804,163.952408 
	C91.092804,163.952408 91.026299,163.975372 91.142204,164.144516 
	C91.416702,164.578979 91.617523,164.807114 91.860580,164.998062 
	C92.148918,165.392746 92.396935,165.825882 92.731476,166.176468 
	C100.806580,174.639114 100.808250,174.637512 110.005417,166.091751 
	C115.503922,166.397751 120.375969,166.306534 124.960136,167.410645 
	C128.693619,168.309875 133.629578,166.231827 136.048416,171.126709 
	C135.264038,172.024628 134.479660,172.922546 133.207306,174.033203 
	C132.450623,174.403198 132.215332,174.600357 132.013504,174.837418 
	C129.565536,177.505325 127.117561,180.173233 124.360497,182.984177 
z"/>
<path fill="#107AFF" opacity="1.000000" stroke="none" 
	d="
M20.013630,125.363556 
	C23.159796,124.557816 26.405771,123.327454 29.566143,123.517860 
	C37.134159,123.973839 44.661907,125.098129 52.648735,125.927383 
	C53.091557,125.902130 53.051731,125.958473 53.187115,126.135941 
	C53.582836,126.533806 53.843178,126.754219 54.103519,126.974625 
	C54.103519,126.974625 54.022686,126.977173 54.172604,127.145271 
	C54.582863,127.533791 54.843208,127.754204 55.103554,127.974625 
	C55.103554,127.974625 55.022686,127.977158 55.172600,128.145264 
	C55.582878,128.533783 55.843239,128.754196 56.103607,128.974609 
	C56.103607,128.974609 56.022717,128.977158 56.172623,129.145233 
	C56.582901,129.533737 56.843269,129.754166 57.103638,129.974579 
	C57.103638,129.974579 57.022736,129.977097 57.172623,130.145203 
	C57.582890,130.533737 57.843262,130.754166 58.103638,130.974579 
	C58.103638,130.974579 58.022713,130.977112 58.172611,131.145203 
	C58.582886,131.533722 58.843258,131.754150 59.103634,131.974564 
	C59.103634,131.974564 59.022724,131.977112 59.172615,132.145218 
	C59.582878,132.533737 59.843254,132.754150 60.103630,132.974564 
	C60.103630,132.974564 60.022736,132.977066 60.172630,133.145187 
	C60.582893,133.533737 60.843266,133.754150 61.103638,133.974579 
	C61.103638,133.974579 61.022728,133.977066 61.172630,134.145187 
	C61.582905,134.533722 61.843285,134.754150 62.103661,134.974564 
	C62.103661,134.974564 62.022743,134.977051 62.172474,135.145020 
	C62.581650,135.534042 62.841095,135.755096 63.100544,135.976151 
	C63.100544,135.976151 63.021271,135.976837 63.171452,136.145416 
	C63.580643,136.534668 63.839653,136.755356 64.098663,136.976028 
	C64.098663,136.976028 64.021767,136.978714 64.171906,137.147156 
	C64.580971,137.535690 64.839897,137.755798 65.098831,137.975906 
	C65.098831,137.975906 65.021843,137.978683 65.171967,138.147079 
	C65.581078,138.535583 65.840057,138.755692 66.099030,138.975815 
	C66.099030,138.975815 66.021935,138.978638 66.172043,139.147003 
	C66.581177,139.535492 66.840187,139.755615 67.099205,139.975754 
	C67.099205,139.975754 67.021988,139.978592 67.172104,140.146927 
	C67.581253,140.535431 67.840279,140.755585 68.099312,140.975754 
	C68.099312,140.975754 68.032082,140.954514 68.094666,141.228989 
	C68.481293,141.989685 68.805351,142.475922 69.129410,142.962143 
	C69.406105,143.135498 69.682800,143.308853 69.585495,143.729675 
	C66.117775,143.731049 63.027542,143.343735 59.929653,143.267532 
	C52.959297,143.096085 45.985149,143.078888 38.737396,143.003372 
	C38.279488,143.023865 38.096725,143.039856 37.913967,143.055847 
	C37.913967,143.055847 37.985973,143.041702 37.837624,142.863220 
	C37.421585,142.458054 37.153900,142.231369 36.886215,142.004669 
	C36.886215,142.004669 36.996845,142.003510 36.843056,141.844147 
	C36.421589,141.458069 36.153908,141.231369 35.886223,141.004669 
	C35.886223,141.004669 35.996853,141.003510 35.843063,140.844116 
	C35.421604,140.458038 35.153927,140.231354 34.886250,140.004654 
	C34.886250,140.004654 34.996857,140.003510 34.843082,139.844116 
	C34.421646,139.458023 34.153984,139.231323 33.886322,139.004639 
	C33.886322,139.004639 33.996872,139.003494 33.843109,138.844086 
	C33.421688,138.457993 33.154030,138.231308 32.886372,138.004639 
	C32.886372,138.004639 32.996872,138.003464 32.843105,137.844055 
	C32.421692,137.457962 32.154045,137.231293 31.886402,137.004623 
	C31.886404,137.004623 31.996887,137.003479 31.843113,136.844040 
	C31.421677,136.457947 31.154016,136.231293 30.886360,136.004639 
	C30.886360,136.004639 30.996874,136.003494 30.843094,135.844055 
	C30.421631,135.457977 30.153950,135.231323 29.886272,135.004654 
	C29.886274,135.004654 29.996872,135.003494 29.843079,134.844086 
	C29.421583,134.458023 29.153883,134.231354 28.886185,134.004669 
	C28.886185,134.004669 28.996843,134.003510 28.843061,133.844116 
	C28.421574,133.458054 28.153866,133.231369 27.886160,133.004684 
	C27.886160,133.004684 27.996826,133.003540 27.843060,132.844147 
	C27.421602,132.458054 27.153910,132.231354 26.886217,132.004654 
	C26.886217,132.004654 26.996840,132.003510 26.843090,131.844116 
	C26.421684,131.458008 26.154030,131.231323 25.886375,131.004623 
	C25.886375,131.004623 25.996914,131.003433 25.843081,130.844147 
	C25.422014,130.457855 25.154779,130.230881 24.887547,130.003891 
	C24.887548,130.003891 24.997824,130.004669 24.844589,129.844177 
	C24.423656,129.457489 24.155958,129.231293 23.888260,129.005112 
	C23.888260,129.005112 23.996059,129.003723 23.843401,128.843048 
	C23.423321,128.456589 23.155901,128.230804 22.888481,128.005035 
	C22.888481,128.005035 22.996113,128.003662 22.843018,127.842590 
	C22.420738,127.456627 22.151552,127.231743 21.882364,127.006851 
	C21.882364,127.006851 21.994759,126.999275 21.835878,126.843170 
	C21.398565,126.467644 21.120134,126.248215 20.841702,126.028793 
	C20.505066,126.020668 20.249338,125.872719 20.013630,125.363556 
z"/>
<path fill="#0F76FF" opacity="1.000000" stroke="none" 
	d="
M39.012543,142.998901 
	C45.985149,143.078888 52.959297,143.096085 59.929653,143.267532 
	C63.027542,143.343735 66.117775,143.731049 69.672913,143.967468 
	C75.706062,149.417770 81.277779,154.877731 86.989822,160.645325 
	C80.546577,160.415405 73.970589,159.650284 67.376411,159.430191 
	C63.732460,159.308563 60.058025,160.100372 56.171169,160.805389 
	C51.490906,156.455276 47.036808,151.780212 42.109779,146.805588 
	C41.400291,146.317383 41.144691,146.159561 40.870045,146.032593 
	C40.535011,146.025497 40.277515,145.880600 39.892593,145.151962 
	C39.422897,144.469818 39.158169,144.233597 38.893440,143.997391 
	C38.893440,143.997391 38.965118,144.015472 38.980789,143.779022 
	C39.001827,143.361343 39.007187,143.180130 39.012543,142.998901 
z"/>
<path fill="#158CFF" opacity="1.000000" stroke="none" 
	d="
M36.396580,92.947556 
	C34.767204,91.719032 33.602142,89.420586 32.096981,89.170700 
	C25.740591,88.115440 19.282904,87.670341 12.428743,86.652924 
	C11.978585,85.840790 11.961945,85.377853 11.945304,84.914917 
	C11.945304,84.914917 11.964012,84.981125 12.141378,84.832474 
	C12.536683,84.421776 12.754622,84.159721 12.972560,83.897667 
	C12.972559,83.897667 12.974044,83.976425 13.146362,83.830147 
	C13.536676,83.421768 13.754672,83.159660 13.972668,82.897560 
	C13.972667,82.897560 13.974146,82.976509 14.146406,82.830215 
	C14.536695,82.421768 14.754723,82.159622 14.972750,81.897469 
	C14.972748,81.897469 14.974221,81.976601 15.146420,81.830261 
	C15.536678,81.421730 15.754738,81.159531 15.972795,80.897331 
	C15.972795,80.897331 15.974386,80.976768 16.146584,80.829468 
	C16.536358,80.418312 16.753935,80.154472 16.971512,79.890625 
	C16.971512,79.890625 16.974234,79.976028 17.143936,79.826523 
	C17.529268,79.409164 17.744902,79.141304 17.960535,78.873451 
	C18.742153,77.975571 19.523769,77.077698 20.803619,75.928009 
	C21.525356,75.412476 21.748863,75.148758 21.972370,74.885033 
	C21.972368,74.885033 21.973078,74.974983 22.142111,74.827362 
	C22.530762,74.414970 22.750380,74.150200 22.969997,73.885429 
	C22.969995,73.885429 22.971724,73.974136 23.141367,73.826920 
	C23.530678,73.414925 23.750347,73.150162 23.970016,72.885399 
	C23.970018,72.885399 23.971777,72.974159 24.141369,72.826912 
	C24.530640,72.414909 24.750317,72.150154 24.969994,71.885399 
	C24.969992,71.885399 24.971771,71.974129 25.141350,71.826874 
	C25.530598,71.414879 25.750267,71.150139 25.969938,70.885399 
	C25.969940,70.885399 25.971727,70.974075 26.141308,70.826828 
	C26.530554,70.414864 26.750219,70.150146 26.969887,69.885437 
	C26.969887,69.885437 26.981079,69.954117 27.218353,69.971771 
	C27.636503,69.993912 27.817377,69.998383 28.315079,70.229767 
	C34.982517,71.306412 41.318630,72.300941 47.690426,72.939232 
	C50.491638,73.219833 52.016346,74.229294 52.091331,77.095123 
	C52.091331,77.095123 52.044144,77.043228 51.866905,77.183853 
	C51.474533,77.593536 51.259396,77.862595 51.044262,78.131660 
	C46.264324,83.027763 41.484386,87.923866 36.396580,92.947556 
z"/>
<path fill="#1DA0FF" opacity="1.000000" stroke="none" 
	d="
M38.926605,57.925442 
	C43.726376,53.007702 48.526150,48.089962 53.657776,43.437996 
	C55.021984,48.999866 59.605217,47.153328 62.772583,47.936417 
	C67.816261,49.183407 72.948547,50.071976 78.043365,51.112125 
	C73.581223,55.699699 69.119080,60.287270 64.329498,64.609192 
	C62.752628,63.210640 61.639538,61.327427 60.230743,61.071411 
	C53.171913,59.788631 46.035652,58.931908 38.926605,57.925442 
z"/>
<path fill="#1896FF" opacity="1.000000" stroke="none" 
	d="
M38.950066,57.947655 
	C46.035652,58.931908 53.171913,59.788631 60.230743,61.071411 
	C61.639538,61.327427 62.752628,63.210640 64.021080,64.751404 
	C60.262688,69.051987 56.485283,72.944702 52.399605,76.966278 
	C52.016346,74.229294 50.491638,73.219833 47.690426,72.939232 
	C41.318630,72.300941 34.982517,71.306412 28.309671,69.957428 
	C27.972265,69.277336 27.957094,69.096489 27.941923,68.915642 
	C27.941923,68.915642 27.955612,68.984131 28.135948,68.832779 
	C28.531044,68.418182 28.745804,68.154922 28.960564,67.891663 
	C28.960562,67.891663 28.962452,67.965340 29.139372,67.823303 
	C29.530960,67.418129 29.745628,67.154999 29.960297,66.891861 
	C29.960297,66.891861 29.962191,66.965111 30.139244,66.823105 
	C30.530880,66.418022 30.745459,66.154953 30.960041,65.891884 
	C30.960041,65.891884 30.961973,65.964874 31.139095,65.822891 
	C31.530712,65.417862 31.745207,65.154816 31.959700,64.891777 
	C31.959700,64.891777 31.962139,64.965820 32.138657,64.821640 
	C32.528156,64.411797 32.741138,64.146133 32.954117,63.880463 
	C34.399086,62.318226 35.844051,60.755993 37.797153,58.931450 
	C38.527660,58.414509 38.750031,58.159878 38.972404,57.905251 
	C38.972404,57.905251 38.973522,57.969872 38.950066,57.947655 
z"/>
<path fill="#0F76FF" opacity="1.000000" stroke="none" 
	d="
M136.357849,170.983856 
	C133.629578,166.231827 128.693619,168.309875 124.960136,167.410645 
	C120.375969,166.306534 115.503922,166.397751 110.310379,165.958527 
	C113.995705,161.699249 118.126976,157.453720 122.982147,153.113708 
	C132.081421,154.345154 140.456772,155.671082 148.832138,156.996994 
	C149.020538,157.358154 148.945099,157.651474 148.143433,158.160645 
	C147.470276,159.005844 147.259521,159.567307 147.048752,160.128784 
	C146.586563,160.702988 146.124374,161.277206 145.190521,162.049011 
	C144.450623,162.403793 144.215652,162.600677 144.013962,162.837250 
	C141.565063,165.505157 139.116165,168.173065 136.357849,170.983856 
z"/>
<path fill="#F85661" opacity="1.000000" stroke="none" 
	d="
M198.990662,94.646149 
	C189.036499,92.545799 178.952179,90.051254 168.811951,87.809517 
	C166.497696,87.297897 163.990433,87.659233 161.260284,87.862511 
	C157.303223,84.255768 152.011566,81.726944 151.502884,75.373398 
	C154.726334,75.524284 157.492477,75.951118 160.211121,76.582558 
	C169.189117,78.667809 178.149933,80.826996 187.117355,82.957794 
	C191.024994,86.753075 194.932617,90.548363 198.990662,94.646149 
z"/>
<path fill="#20ABFF" opacity="1.000000" stroke="none" 
	d="
M78.354141,50.979286 
	C72.948547,50.071976 67.816261,49.183407 62.772583,47.936417 
	C59.605217,47.153328 55.021984,48.999866 53.966244,43.303772 
	C57.389591,39.335163 60.836330,35.766544 64.643600,32.465195 
	C66.221512,33.807655 67.310654,35.591904 68.677757,35.839138 
	C75.783257,37.124130 82.959610,38.017376 90.111282,39.047047 
	C86.295830,42.980183 82.480370,46.913315 78.354141,50.979286 
z"/>
<path fill="#22B4FF" opacity="1.000000" stroke="none" 
	d="
M90.419250,38.921829 
	C82.959610,38.017376 75.783257,37.124130 68.677757,35.839138 
	C67.310654,35.591904 66.221512,33.807655 64.952438,32.340588 
	C64.900734,31.948711 64.942039,31.954346 65.137032,31.815720 
	C65.585114,31.467976 65.789696,31.219000 65.945770,30.930162 
	C65.945770,30.930162 65.995804,30.994801 66.163895,30.835886 
	C66.585045,30.467840 66.789619,30.218864 66.945709,29.930044 
	C66.945709,29.930044 66.995789,29.994673 67.163826,29.835743 
	C67.584938,29.467594 67.789566,29.218575 67.945755,28.929750 
	C67.945755,28.929750 67.995522,28.994505 68.163574,28.835579 
	C68.584740,28.467312 68.789467,28.218208 68.945816,27.929342 
	C68.945816,27.929342 68.995247,27.994225 69.163284,27.835346 
	C69.584511,27.467007 69.789383,27.217817 69.945923,26.928898 
	C69.945923,26.928898 69.994484,26.993212 70.157913,26.836552 
	C70.570618,26.475199 70.764748,26.227331 70.903740,25.936287 
	C71.726562,25.001303 72.549385,24.066317 73.858536,23.336281 
	C75.541389,24.329901 76.672287,25.664062 77.945282,25.817219 
	C85.279457,26.699621 92.647247,27.302641 100.010727,28.277159 
	C100.030052,28.738182 100.042305,28.922382 100.054550,29.106583 
	C96.945435,32.336590 93.836327,35.566601 90.419250,38.921829 
z"/>
<path fill="#F74354" opacity="1.000000" stroke="none" 
	d="
M124.834717,104.997391 
	C124.279175,107.106163 123.723640,109.214928 122.638580,111.583420 
	C108.858513,108.431229 95.624405,104.951874 82.330963,101.716225 
	C81.061928,101.407341 79.422516,102.620132 77.955055,103.126495 
	C78.057503,100.190590 78.159958,97.254677 78.901154,94.347443 
	C86.911140,96.228180 94.260544,98.173454 101.659630,99.906601 
	C109.359665,101.710236 117.107681,103.309029 124.834717,104.997391 
z"/>
<path fill="#F73C4C" opacity="1.000000" stroke="none" 
	d="
M77.973679,103.505920 
	C79.422516,102.620132 81.061928,101.407341 82.330963,101.716225 
	C95.624405,104.951874 108.858513,108.431229 122.471405,111.918968 
	C121.445396,114.281586 120.057022,116.568375 118.268173,118.633087 
	C115.157104,117.180161 112.558311,115.480438 109.715843,114.802727 
	C99.483482,112.363083 89.168915,110.268204 78.885406,108.043068 
	C78.587700,106.657158 78.289993,105.271255 77.973679,103.505920 
z"/>
<path fill="#F74C5C" opacity="1.000000" stroke="none" 
	d="
M125.004272,104.656693 
	C117.107681,103.309029 109.359665,101.710236 101.659630,99.906601 
	C94.260544,98.173454 86.911140,96.228180 79.243050,94.135887 
	C79.582909,92.474213 80.219627,91.052773 81.383507,89.395210 
	C96.559731,92.776962 111.208786,96.394836 125.857849,100.012711 
	C125.629837,101.447136 125.401833,102.881569 125.004272,104.656693 
z"/>
<path fill="#F73F50" opacity="1.000000" stroke="none" 
	d="
M171.576248,104.091743 
	C179.733307,106.218094 187.586899,108.475494 195.773468,110.892639 
	C193.290848,113.978180 190.475235,116.903992 187.160309,119.665878 
	C178.734238,117.321678 170.807495,115.141403 162.880737,112.961136 
	C165.678085,110.048355 168.475433,107.135574 171.576248,104.091743 
z"/>
<path fill="#107AFF" opacity="1.000000" stroke="none" 
	d="
M149.011810,156.643875 
	C140.456772,155.671082 132.081421,154.345154 123.286118,152.981979 
	C125.482521,150.219421 128.067810,147.463425 130.723083,144.776581 
	C134.033005,141.427292 140.582504,140.787048 144.682541,143.345535 
	C148.482376,145.716690 150.525375,151.582153 149.011810,156.643875 
z"/>
<path fill="#F85661" opacity="1.000000" stroke="none" 
	d="
M125.805344,99.637115 
	C111.208786,96.394836 96.559731,92.776962 81.537949,89.078613 
	C82.191566,87.405968 83.217903,85.813812 84.944542,84.120155 
	C87.086182,84.394623 88.519798,84.803757 89.970085,85.141258 
	C101.256317,87.767822 112.545761,90.380608 123.834213,92.997635 
	C124.473763,95.085602 125.113304,97.173561 125.805344,99.637115 
z"/>
<path fill="#F63848" opacity="1.000000" stroke="none" 
	d="
M162.578827,113.091484 
	C170.807495,115.141403 178.734238,117.321678 186.854248,119.806145 
	C184.934738,122.335381 182.821976,124.560432 180.070831,126.757187 
	C171.583588,124.471268 163.734711,122.213646 155.885849,119.956032 
	C158.016205,117.711304 160.146561,115.466568 162.578827,113.091484 
z"/>
<path fill="#36ADF7" opacity="1.000000" stroke="none" 
	d="
M129.887833,56.045094 
	C127.660278,53.934414 125.432724,51.823734 123.299500,49.156567 
	C127.438110,45.054413 131.605225,41.635151 135.457321,37.891724 
	C136.734879,36.650211 137.202332,34.575092 138.040161,32.881092 
	C140.975754,35.697632 143.911346,38.514172 146.689270,41.807648 
	C140.983673,46.871418 135.435760,51.458256 129.887833,56.045094 
z"/>
<path fill="#38A6F5" opacity="1.000000" stroke="none" 
	d="
M137.913574,32.575737 
	C137.202332,34.575092 136.734879,36.650211 135.457321,37.891724 
	C131.605225,41.635151 127.438110,45.054413 123.171127,48.852829 
	C120.701462,46.975292 118.454491,44.845009 116.250000,42.114239 
	C117.734985,40.208557 119.311249,39.021984 120.594193,37.575287 
	C124.045975,33.682941 129.785324,31.498106 129.998672,25.154865 
	C132.594772,27.526701 135.190887,29.898537 137.913574,32.575737 
z"/>
<path fill="#F63444" opacity="1.000000" stroke="none" 
	d="
M78.932877,108.410599 
	C89.168915,110.268204 99.483482,112.363083 109.715843,114.802727 
	C112.558311,115.480438 115.157104,117.180161 117.952606,118.775085 
	C116.430283,120.178658 114.823036,121.218147 112.594604,122.194153 
	C101.944061,119.769333 91.914711,117.408012 81.885368,115.046684 
	C80.917030,112.957169 79.948692,110.867653 78.932877,108.410599 
z"/>
<path fill="#F63141" opacity="1.000000" stroke="none" 
	d="
M155.574249,120.096802 
	C163.734711,122.213646 171.583588,124.471268 179.769836,126.890854 
	C177.974503,129.296524 175.841797,131.540237 173.070557,133.756241 
	C165.343109,131.818253 158.254196,129.907974 151.165268,127.997704 
	C152.531067,125.410995 153.896866,122.824295 155.574249,120.096802 
z"/>
<path fill="#F86066" opacity="1.000000" stroke="none" 
	d="
M123.800705,92.653793 
	C112.545761,90.380608 101.256317,87.767822 89.970085,85.141258 
	C88.519798,84.803757 87.086182,84.394623 85.243675,83.985229 
	C87.630699,82.294495 90.418884,80.637192 93.777466,79.237747 
	C102.852547,81.665749 111.357246,83.835899 119.861938,86.006050 
	C121.163689,88.107353 122.465446,90.208649 123.800705,92.653793 
z"/>
<path fill="#34B3F9" opacity="1.000000" stroke="none" 
	d="
M130.036774,56.369396 
	C135.435760,51.458256 140.983673,46.871418 146.828552,42.114769 
	C151.914856,49.043129 150.114090,54.154469 145.694916,58.002216 
	C141.348969,61.786217 135.074356,61.097996 130.036774,56.369396 
z"/>
<path fill="#F96565" opacity="1.000000" stroke="none" 
	d="
M151.139511,70.016602 
	C154.238846,60.625904 165.924622,59.736038 170.859665,66.209824 
	C173.428192,69.579224 176.820480,72.320656 179.553101,75.660927 
	C176.501373,75.481331 173.718842,75.071144 170.976761,74.474960 
	C164.354294,73.035088 157.750702,71.508331 151.139511,70.016602 
z"/>
<path fill="#3A9FF3" opacity="1.000000" stroke="none" 
	d="
M129.704895,25.026058 
	C129.785324,31.498106 124.045975,33.682941 120.594193,37.575287 
	C119.311249,39.021984 117.734985,40.208557 116.120743,41.810318 
	C113.686256,39.957928 111.423500,37.808975 109.338409,35.204834 
	C114.012932,30.498304 118.509773,26.246958 123.006622,21.995611 
	C123.778580,21.987879 124.550537,21.980145 125.707916,21.962814 
	C127.199272,22.934561 128.305206,23.915905 129.704895,25.026058 
z"/>
<path fill="#3B9AF1" opacity="1.000000" stroke="none" 
	d="
M122.715805,21.758495 
	C118.509773,26.246958 114.012932,30.498304 109.203339,34.897987 
	C106.187225,33.035370 103.483864,31.024410 100.417526,29.060017 
	C100.042305,28.922382 100.030052,28.738182 100.298599,28.106037 
	C103.720551,25.440382 106.861710,23.222668 110.002869,21.004955 
	C114.143578,21.177097 118.284286,21.349237 122.715805,21.758495 
z"/>
<path fill="#F62B3B" opacity="1.000000" stroke="none" 
	d="
M151.095779,128.401215 
	C158.254196,129.907974 165.343109,131.818253 172.769165,133.890366 
	C167.475983,140.563004 160.561981,142.540390 155.865112,138.129929 
	C153.456848,135.868500 152.589844,131.965729 151.095779,128.401215 
z"/>
<path fill="#F85D62" opacity="1.000000" stroke="none" 
	d="
M151.078964,70.428688 
	C157.750702,71.508331 164.354294,73.035088 170.976761,74.474960 
	C173.718842,75.071144 176.501373,75.481331 179.692139,75.968971 
	C182.360168,78.090042 184.601532,80.218246 186.980133,82.652122 
	C178.149933,80.826996 169.189117,78.667809 160.211121,76.582558 
	C157.492477,75.951118 154.726334,75.524284 151.573486,75.002129 
	C151.116165,73.613945 151.067291,72.227356 151.078964,70.428688 
z"/>
<path fill="#F62B3B" opacity="1.000000" stroke="none" 
	d="
M82.032097,115.365265 
	C91.914711,117.408012 101.944061,119.769333 112.327034,122.390236 
	C101.213173,128.505844 87.728722,124.061401 82.032097,115.365265 
z"/>
<path fill="#F96565" opacity="1.000000" stroke="none" 
	d="
M119.841362,85.659637 
	C111.357246,83.835899 102.852547,81.665749 94.148651,79.190506 
	C104.124191,74.785515 112.295494,78.749306 119.841362,85.659637 
z"/>
<path fill="#1281FF" opacity="1.000000" stroke="none" 
	d="
M69.074577,142.651291 
	C68.805351,142.475922 68.481293,141.989685 68.121185,141.205765 
	C68.396667,141.385529 68.708206,141.862976 69.074577,142.651291 
z"/>
<path fill="#107AFF" opacity="1.000000" stroke="none" 
	d="
M147.337311,159.990265 
	C147.259521,159.567307 147.470276,159.005844 147.907227,158.239655 
	C147.964249,158.640549 147.795074,159.246155 147.337311,159.990265 
z"/>
<path fill="#1281FF" opacity="1.000000" stroke="none" 
	d="
M60.022598,132.710678 
	C59.843254,132.754150 59.582878,132.533737 59.172268,132.104736 
	C59.328545,132.079712 59.635056,132.263245 60.022598,132.710678 
z"/>
<path fill="#1281FF" opacity="1.000000" stroke="none" 
	d="
M58.022598,130.710693 
	C57.843262,130.754166 57.582890,130.533737 57.172279,130.104736 
	C57.328552,130.079712 57.635059,130.263260 58.022598,130.710693 
z"/>
<path fill="#1281FF" opacity="1.000000" stroke="none" 
	d="
M59.022594,131.710678 
	C58.843258,131.754150 58.582886,131.533722 58.172272,131.104736 
	C58.328541,131.079697 58.635048,131.263245 59.022594,131.710678 
z"/>
<path fill="#1281FF" opacity="1.000000" stroke="none" 
	d="
M63.021122,135.711639 
	C62.841095,135.755096 62.581650,135.534042 62.172157,135.104538 
	C62.328636,135.079773 62.635170,135.263458 63.021122,135.711639 
z"/>
<path fill="#1281FF" opacity="1.000000" stroke="none" 
	d="
M61.022640,133.710663 
	C60.843266,133.754150 60.582893,133.533737 60.172302,133.104721 
	C60.328602,133.079681 60.635120,133.263229 61.022640,133.710663 
z"/>
<path fill="#1281FF" opacity="1.000000" stroke="none" 
	d="
M62.022697,134.710632 
	C61.843285,134.754150 61.582905,134.533722 61.172310,134.104706 
	C61.328636,134.079636 61.635185,134.263168 62.022697,134.710632 
z"/>
<path fill="#1281FF" opacity="1.000000" stroke="none" 
	d="
M57.022602,129.710693 
	C56.843269,129.754166 56.582901,129.533737 56.172279,129.104767 
	C56.328537,129.079758 56.635052,129.263290 57.022602,129.710693 
z"/>
<path fill="#1281FF" opacity="1.000000" stroke="none" 
	d="
M56.022583,128.710724 
	C55.843239,128.754196 55.582878,128.533783 55.172264,128.104797 
	C55.328529,128.079773 55.635048,128.263290 56.022583,128.710724 
z"/>
<path fill="#1281FF" opacity="1.000000" stroke="none" 
	d="
M55.022560,127.710732 
	C54.843208,127.754204 54.582863,127.533791 54.172256,127.104843 
	C54.328518,127.079819 54.635040,127.263329 55.022560,127.710732 
z"/>
<path fill="#1281FF" opacity="1.000000" stroke="none" 
	d="
M54.022537,126.710724 
	C53.843178,126.754219 53.582836,126.533806 53.172249,126.104866 
	C53.328518,126.079834 53.635036,126.263329 54.022537,126.710724 
z"/>
<path fill="#1F8CFE" opacity="1.000000" stroke="none" 
	d="
M47.046867,119.698975 
	C46.876484,119.740219 46.600464,119.523712 46.166416,119.094109 
	C46.319332,119.067749 46.630283,119.254486 47.046867,119.698975 
z"/>
<path fill="#1F8CFE" opacity="1.000000" stroke="none" 
	d="
M46.030731,118.718369 
	C45.851727,118.759697 45.584396,118.534828 45.164604,118.095169 
	C45.322231,118.070984 45.632324,118.261589 46.030731,118.718369 
z"/>
<path fill="#1F8CFE" opacity="1.000000" stroke="none" 
	d="
M45.030640,117.718483 
	C44.851517,117.759857 44.584244,117.534950 44.164532,117.095261 
	C44.322227,117.071053 44.632359,117.261627 45.030640,117.718483 
z"/>
<path fill="#0E70FF" opacity="1.000000" stroke="none" 
	d="
M119.277565,187.865387 
	C119.215134,187.601303 119.450005,187.404358 119.925537,187.146225 
	C119.935753,187.327774 119.738640,187.610260 119.277565,187.865387 
z"/>
<path fill="#0F76FF" opacity="1.000000" stroke="none" 
	d="
M132.277893,174.864716 
	C132.215332,174.600357 132.450623,174.403198 132.926727,174.144180 
	C132.936844,174.325623 132.739563,174.608826 132.277893,174.864716 
z"/>
<path fill="#0F76FF" opacity="1.000000" stroke="none" 
	d="
M91.891968,164.730560 
	C91.617523,164.807114 91.416702,164.578979 91.151367,164.110550 
	C91.337532,164.092651 91.630440,164.277847 91.891968,164.730560 
z"/>
<path fill="#0F76FF" opacity="1.000000" stroke="none" 
	d="
M91.016106,163.694946 
	C90.811127,163.830978 90.553589,163.670746 90.164497,163.305283 
	C90.319008,163.238388 90.629204,163.337921 91.016106,163.694946 
z"/>
<path fill="#107AFF" opacity="1.000000" stroke="none" 
	d="
M144.278229,162.865448 
	C144.215652,162.600677 144.450623,162.403793 144.926041,162.145218 
	C144.936295,162.327087 144.739380,162.610367 144.278229,162.865448 
z"/>
<path fill="#1281FF" opacity="1.000000" stroke="none" 
	d="
M68.022171,140.710083 
	C67.840279,140.755585 67.581253,140.535431 67.171577,140.108292 
	C67.328972,140.082336 67.637001,140.263367 68.022171,140.710083 
z"/>
<path fill="#1281FF" opacity="1.000000" stroke="none" 
	d="
M67.022095,139.710068 
	C66.840187,139.755615 66.581177,139.535492 66.171524,139.108429 
	C66.328926,139.082458 66.636963,139.263412 67.022095,139.710068 
z"/>
<path fill="#1281FF" opacity="1.000000" stroke="none" 
	d="
M66.021973,138.710144 
	C65.840057,138.755692 65.581078,138.535583 65.171471,138.108566 
	C65.328873,138.082581 65.636902,138.263519 66.021973,138.710144 
z"/>
<path fill="#1281FF" opacity="1.000000" stroke="none" 
	d="
M65.021820,137.710236 
	C64.839897,137.755798 64.580971,137.535690 64.171432,137.108673 
	C64.328827,137.082703 64.636826,137.263626 65.021820,137.710236 
z"/>
<path fill="#1F8CFE" opacity="1.000000" stroke="none" 
	d="
M44.030609,116.718536 
	C43.851444,116.759926 43.584190,116.535004 43.164513,116.095276 
	C43.322235,116.071060 43.632378,116.261642 44.030609,116.718536 
z"/>
<path fill="#1281FF" opacity="1.000000" stroke="none" 
	d="
M64.021721,136.710358 
	C63.839653,136.755356 63.580643,136.534668 63.172020,136.105774 
	C63.329865,136.079941 63.637318,136.262314 64.021721,136.710358 
z"/>
<path fill="#158CFF" opacity="1.000000" stroke="none" 
	d="
M33.287941,96.013138 
	C33.243702,95.834000 33.462044,95.577568 33.885612,95.171776 
	C33.910728,95.326889 33.730621,95.631363 33.287941,96.013138 
z"/>
<path fill="#158CFF" opacity="1.000000" stroke="none" 
	d="
M34.287910,95.013107 
	C34.243656,94.833954 34.462006,94.577522 34.885571,94.171722 
	C34.910690,94.326843 34.730598,94.631340 34.287910,95.013107 
z"/>
<path fill="#158CFF" opacity="1.000000" stroke="none" 
	d="
M35.287861,94.013084 
	C35.243595,93.833916 35.461952,93.577492 35.885490,93.171677 
	C35.910610,93.326790 35.730545,93.631310 35.287861,94.013084 
z"/>
<path fill="#158CFF" opacity="1.000000" stroke="none" 
	d="
M32.287994,97.013229 
	C32.243767,96.834137 32.462090,96.577660 32.885654,96.171814 
	C32.910782,96.326920 32.730663,96.631386 32.287994,97.013229 
z"/>
<path fill="#1896FF" opacity="1.000000" stroke="none" 
	d="
M51.305359,78.039261 
	C51.259396,77.862595 51.474533,77.593536 51.899040,77.169800 
	C51.927761,77.325699 51.747112,77.636284 51.305359,78.039261 
z"/>
<path fill="#1F8CFE" opacity="1.000000" stroke="none" 
	d="
M43.030586,115.718567 
	C42.851421,115.759956 42.584175,115.535049 42.164497,115.095352 
	C42.322212,115.071121 42.632362,115.261688 43.030586,115.718567 
z"/>
<path fill="#1F8CFE" opacity="1.000000" stroke="none" 
	d="
M42.030548,114.718582 
	C41.851368,114.759979 41.584141,114.535065 41.164494,114.095367 
	C41.322220,114.071144 41.632359,114.261711 42.030548,114.718582 
z"/>
<path fill="#1F8CFE" opacity="1.000000" stroke="none" 
	d="
M41.030510,113.718597 
	C40.851337,113.759995 40.584118,113.535088 40.164490,113.095383 
	C40.322208,113.071159 40.632336,113.261726 41.030510,113.718597 
z"/>
<path fill="#1F8CFE" opacity="1.000000" stroke="none" 
	d="
M40.030502,112.718559 
	C39.851143,112.759674 39.583767,112.534538 39.164982,112.093491 
	C39.323208,112.069160 39.632843,112.260735 40.030502,112.718559 
z"/>
<path fill="#1F8CFE" opacity="1.000000" stroke="none" 
	d="
M39.027935,111.721741 
	C38.852467,111.760017 38.585506,111.534164 38.165588,111.093468 
	C38.320568,111.071617 38.628502,111.264618 39.027935,111.721741 
z"/>
<path fill="#1F8CFE" opacity="1.000000" stroke="none" 
	d="
M38.027802,110.720230 
	C37.852482,110.758705 37.585247,110.533569 37.165390,110.093536 
	C37.320473,110.071297 37.628181,110.263954 38.027802,110.720230 
z"/>
<path fill="#1F8CFE" opacity="1.000000" stroke="none" 
	d="
M37.027771,109.720276 
	C36.852451,109.758743 36.585224,109.533600 36.165375,109.093567 
	C36.320454,109.071342 36.628159,109.264000 37.027771,109.720276 
z"/>
<path fill="#1F8CFE" opacity="1.000000" stroke="none" 
	d="
M36.027740,108.720291 
	C35.852432,108.758759 35.585213,108.533607 35.165367,108.093582 
	C35.320435,108.071365 35.628132,108.264023 36.027740,108.720291 
z"/>
<path fill="#1F8CFE" opacity="1.000000" stroke="none" 
	d="
M35.026878,107.713608 
	C34.831470,107.845749 34.567753,107.686676 34.164848,107.324341 
	C34.313725,107.259483 34.624695,107.359924 35.026878,107.713608 
z"/>
<path fill="#158CFF" opacity="1.000000" stroke="none" 
	d="
M29.301788,100.027199 
	C29.260038,99.855904 29.474228,99.591377 29.895832,99.174438 
	C29.921406,99.326012 29.739567,99.629982 29.301788,100.027199 
z"/>
<path fill="#158CFF" opacity="1.000000" stroke="none" 
	d="
M30.290712,99.021454 
	C30.246546,98.845024 30.463116,98.584610 30.885565,98.173080 
	C30.911446,98.327126 30.731447,98.632294 30.290712,99.021454 
z"/>
<path fill="#158CFF" opacity="1.000000" stroke="none" 
	d="
M31.288090,98.013489 
	C31.243902,97.834488 31.462214,97.577904 31.885803,97.171898 
	C31.910919,97.326950 31.730753,97.631424 31.288090,98.013489 
z"/>
<path fill="#0E70FF" opacity="1.000000" stroke="none" 
	d="
M76.986465,182.334824 
	C77.515587,182.462067 78.161385,182.865494 78.905602,183.555115 
	C78.370392,183.431213 77.736763,183.021103 76.986465,182.334824 
z"/>
<path fill="#1F8CFE" opacity="1.000000" stroke="none" 
	d="
M24.974720,130.272156 
	C25.154779,130.230881 25.422014,130.457855 25.843544,130.899414 
	C25.685858,130.922791 25.373875,130.731598 24.974720,130.272156 
z"/>
<path fill="#1F8CFE" opacity="1.000000" stroke="none" 
	d="
M25.974148,131.272644 
	C26.154030,131.231323 26.421684,131.458008 26.843527,131.899414 
	C26.685783,131.922989 26.373854,131.731827 25.974148,131.272644 
z"/>
<path fill="#1F8CFE" opacity="1.000000" stroke="none" 
	d="
M26.974075,132.272644 
	C27.153910,132.231354 27.421602,132.458054 27.843506,132.899475 
	C27.685789,132.923004 27.373863,132.731812 26.974075,132.272644 
z"/>
<path fill="#1F8CFE" opacity="1.000000" stroke="none" 
	d="
M27.974060,133.272659 
	C28.153866,133.231369 28.421574,133.458054 28.843506,133.899445 
	C28.685808,133.922989 28.373884,133.731812 27.974060,133.272659 
z"/>
<path fill="#1F8CFE" opacity="1.000000" stroke="none" 
	d="
M28.974072,134.272644 
	C29.153883,134.231354 29.421583,134.458023 29.843517,134.899384 
	C29.685822,134.922928 29.373892,134.731781 28.974072,134.272644 
z"/>
<path fill="#1F8CFE" opacity="1.000000" stroke="none" 
	d="
M29.974125,135.272629 
	C30.153950,135.231323 30.421631,135.457977 30.843536,135.899323 
	C30.685835,135.922867 30.373907,135.731735 29.974125,135.272629 
z"/>
<path fill="#1F8CFE" opacity="1.000000" stroke="none" 
	d="
M31.974197,137.272614 
	C32.154045,137.231293 32.421692,137.457962 32.843552,137.899292 
	C32.685837,137.922852 32.373913,137.731720 31.974197,137.272614 
z"/>
<path fill="#1F8CFE" opacity="1.000000" stroke="none" 
	d="
M23.972908,129.274780 
	C24.155958,129.231293 24.423656,129.457489 24.844067,129.899292 
	C24.683704,129.924759 24.370632,129.734604 23.972908,129.274780 
z"/>
<path fill="#1F8CFE" opacity="1.000000" stroke="none" 
	d="
M22.972973,128.274628 
	C23.155901,128.230804 23.423321,128.456589 23.843937,128.896942 
	C23.683908,128.922424 23.370687,128.733322 22.972973,128.274628 
z"/>
<path fill="#1F8CFE" opacity="1.000000" stroke="none" 
	d="
M21.969599,127.275673 
	C22.151552,127.231743 22.420738,127.456627 22.843544,127.896408 
	C22.683722,127.922363 22.370277,127.733429 21.969599,127.275673 
z"/>
<path fill="#1F8CFE" opacity="1.000000" stroke="none" 
	d="
M20.951374,126.287872 
	C21.120134,126.248215 21.398565,126.467644 21.839575,126.899384 
	C21.688450,126.923439 21.374748,126.735191 20.951374,126.287872 
z"/>
<path fill="#0F76FF" opacity="1.000000" stroke="none" 
	d="
M59.965530,165.300049 
	C60.156605,165.164749 60.419765,165.318390 60.819336,165.678635 
	C60.675335,165.742569 60.369297,165.643814 59.965530,165.300049 
z"/>
<path fill="#1F8CFE" opacity="1.000000" stroke="none" 
	d="
M40.964989,146.273346 
	C41.144691,146.159561 41.400291,146.317383 41.793827,146.667694 
	C41.653851,146.724289 41.356892,146.619202 40.964989,146.273346 
z"/>
<path fill="#1F8CFE" opacity="1.000000" stroke="none" 
	d="
M38.977039,144.267395 
	C39.158169,144.233597 39.422897,144.469818 39.832726,144.930511 
	C39.672096,144.949127 39.366367,144.743256 38.977039,144.267395 
z"/>
<path fill="#1F8CFE" opacity="1.000000" stroke="none" 
	d="
M38.737396,143.003387 
	C39.007187,143.180130 39.001827,143.361343 38.970695,143.814575 
	C38.653294,143.910156 38.361660,143.733734 37.991997,143.306580 
	C38.096725,143.039856 38.279488,143.023865 38.737396,143.003387 
z"/>
<path fill="#1F8CFE" opacity="1.000000" stroke="none" 
	d="
M30.974173,136.272614 
	C31.154016,136.231293 31.421677,136.457947 31.843555,136.899277 
	C31.685844,136.922836 31.373917,136.731720 30.974173,136.272614 
z"/>
<path fill="#1F8CFE" opacity="1.000000" stroke="none" 
	d="
M36.974083,142.272644 
	C37.153900,142.231369 37.421585,142.458054 37.843502,142.899445 
	C37.685806,142.922974 37.373878,142.731796 36.974083,142.272644 
z"/>
<path fill="#1F8CFE" opacity="1.000000" stroke="none" 
	d="
M35.974098,141.272644 
	C36.153908,141.231369 36.421589,141.458069 36.843502,141.899445 
	C36.685810,141.922958 36.373890,141.731796 35.974098,141.272644 
z"/>
<path fill="#1F8CFE" opacity="1.000000" stroke="none" 
	d="
M34.974113,140.272644 
	C35.153927,140.231354 35.421604,140.458038 35.843506,140.899445 
	C35.685814,140.922958 35.373894,140.731781 34.974113,140.272644 
z"/>
<path fill="#1F8CFE" opacity="1.000000" stroke="none" 
	d="
M33.974152,139.272629 
	C34.153984,139.231323 34.421646,139.458023 34.843521,139.899414 
	C34.685818,139.922943 34.373901,139.731781 33.974152,139.272629 
z"/>
<path fill="#1F8CFE" opacity="1.000000" stroke="none" 
	d="
M32.974174,138.272614 
	C33.154030,138.231308 33.421688,138.457993 33.843544,138.899353 
	C33.685822,138.922897 33.373901,138.731750 32.974174,138.272614 
z"/>
<path fill="#1F8CFE" opacity="1.000000" stroke="none" 
	d="
M4.122628,109.259979 
	C4.403686,109.193199 4.605270,109.437531 4.864648,109.934479 
	C4.674646,109.944389 4.381550,109.739052 4.122628,109.259979 
z"/>
<path fill="#1F8CFE" opacity="1.000000" stroke="none" 
	d="
M8.970521,114.276733 
	C9.144798,114.244194 9.410160,114.475571 9.822123,114.927277 
	C9.666350,114.945290 9.363977,114.742966 8.970521,114.276733 
z"/>
<path fill="#1F8CFE" opacity="1.000000" stroke="none" 
	d="
M7.969289,113.281830 
	C8.146500,113.241920 8.414145,113.466873 8.834024,113.907196 
	C8.677415,113.930603 8.368569,113.738647 7.969289,113.281830 
z"/>
<path fill="#1F8CFE" opacity="1.000000" stroke="none" 
	d="
M6.969492,112.283142 
	C7.146476,112.243202 7.414175,112.467728 7.834108,112.907440 
	C7.677631,112.930946 7.368920,112.739273 6.969492,112.283142 
z"/>
<path fill="#1F8CFE" opacity="1.000000" stroke="none" 
	d="
M5.963522,111.291718 
	C6.132366,111.254524 6.404240,111.475220 6.833048,111.909126 
	C6.682172,111.931427 6.374362,111.740509 5.963522,111.291718 
z"/>
<path fill="#25BCFF" opacity="1.000000" stroke="none" 
	d="
M109.858818,20.655190 
	C106.861710,23.222668 103.720551,25.440382 100.291519,27.829216 
	C92.647247,27.302641 85.279457,26.699621 77.945282,25.817219 
	C76.672287,25.664062 75.541389,24.329901 74.151978,23.221750 
	C73.976280,22.547819 74.135490,22.276793 74.881454,21.886898 
	C75.535843,21.426317 75.745499,21.168037 75.955154,20.909758 
	C76.747520,19.996973 77.539879,19.084188 78.829041,17.927582 
	C79.535332,17.425682 79.744827,17.167603 79.954315,16.909519 
	C80.421387,16.322666 80.888466,15.735813 81.902313,15.070150 
	C82.633484,14.993225 82.817886,14.995110 83.002296,14.996995 
	C90.736397,16.327692 98.475853,17.628639 106.199028,19.019983 
	C107.408875,19.237940 108.544708,19.866646 109.858818,20.655190 
z"/>
<path fill="#1F8CFE" opacity="1.000000" stroke="none" 
	d="
M11.666098,85.019440 
	C11.961945,85.377853 11.978585,85.840790 11.996511,86.650894 
	C11.534212,86.992676 11.070629,86.987297 10.259243,86.963150 
	C10.403257,86.337578 10.895075,85.730766 11.666098,85.019440 
z"/>
<path fill="#25BCFF" opacity="1.000000" stroke="none" 
	d="
M85.700500,11.004476 
	C85.798355,11.223577 85.593117,11.474956 85.133308,11.820322 
	C85.102180,11.663069 85.275078,11.370549 85.700500,11.004476 
z"/>
<path fill="#25BCFF" opacity="1.000000" stroke="none" 
	d="
M84.700539,12.004656 
	C84.798477,12.223850 84.593292,12.475168 84.133560,12.820408 
	C84.102379,12.663100 84.275185,12.370584 84.700539,12.004656 
z"/>
<path fill="#22B4FF" opacity="1.000000" stroke="none" 
	d="
M83.697144,12.999228 
	C83.800819,13.223372 83.596489,13.477383 83.130325,13.820347 
	C83.096802,13.659946 83.270340,13.366545 83.697144,12.999228 
z"/>
<path fill="#25BCFF" opacity="1.000000" stroke="none" 
	d="
M87.700424,9.004114 
	C87.798088,9.223024 87.592720,9.474523 87.132706,9.820154 
	C87.101715,9.663020 87.274818,9.370491 87.700424,9.004114 
z"/>
<path fill="#25BCFF" opacity="1.000000" stroke="none" 
	d="
M90.700081,5.993559 
	C90.799591,6.210415 90.594971,6.466107 90.132111,6.817986 
	C90.101059,6.662794 90.275085,6.368868 90.700081,5.993559 
z"/>
<path fill="#25BCFF" opacity="1.000000" stroke="none" 
	d="
M89.700394,7.003741 
	C89.797813,7.222458 89.592293,7.474073 89.132103,7.819967 
	C89.101250,7.662947 89.274590,7.370411 89.700394,7.003741 
z"/>
<path fill="#25BCFF" opacity="1.000000" stroke="none" 
	d="
M88.700394,8.003929 
	C88.797943,8.222740 88.592506,8.474296 88.132416,8.820055 
	C88.101486,8.662980 88.274704,8.370452 88.700394,8.003929 
z"/>
<path fill="#25BCFF" opacity="1.000000" stroke="none" 
	d="
M86.700470,10.004295 
	C86.798225,10.223311 86.592926,10.474752 86.133011,10.820246 
	C86.101952,10.663048 86.274948,10.370522 86.700470,10.004295 
z"/>
<path fill="#1F8CFE" opacity="1.000000" stroke="none" 
	d="
M28.704020,67.979462 
	C28.745804,68.154922 28.531044,68.418182 28.102419,68.823013 
	C28.074863,68.665482 28.261169,68.366371 28.704020,67.979462 
z"/>
<path fill="#1DA0FF" opacity="1.000000" stroke="none" 
	d="
M38.715797,57.989155 
	C38.750031,58.159878 38.527660,58.414509 38.096008,58.812305 
	C38.077549,58.661335 38.268372,58.367195 38.715797,57.989155 
z"/>
<path fill="#1F8CFE" opacity="1.000000" stroke="none" 
	d="
M32.699829,63.973557 
	C32.741138,64.146133 32.528156,64.411797 32.101620,64.821381 
	C32.073887,64.665749 32.259708,64.366203 32.699829,63.973557 
z"/>
<path fill="#1F8CFE" opacity="1.000000" stroke="none" 
	d="
M4.714845,91.981873 
	C4.847191,92.176659 4.689445,92.436501 4.330440,92.833466 
	C4.266302,92.686134 4.364826,92.378242 4.714845,91.981873 
z"/>
<path fill="#1F8CFE" opacity="1.000000" stroke="none" 
	d="
M5.707225,90.970886 
	C5.747756,91.142532 5.530887,91.411613 5.101768,91.833160 
	C5.076288,91.679863 5.263057,91.374092 5.707225,90.970886 
z"/>
<path fill="#1F8CFE" opacity="1.000000" stroke="none" 
	d="
M31.703493,64.979630 
	C31.745207,65.154816 31.530712,65.417862 31.102592,65.822357 
	C31.075075,65.665031 31.261181,65.366257 31.703493,64.979630 
z"/>
<path fill="#1F8CFE" opacity="1.000000" stroke="none" 
	d="
M7.719341,88.982361 
	C7.753664,89.154182 7.529076,89.416016 7.089679,89.823151 
	C7.070057,89.669754 7.265244,89.371071 7.719341,88.982361 
z"/>
<path fill="#1F8CFE" opacity="1.000000" stroke="none" 
	d="
M8.717556,87.983101 
	C8.755534,88.155563 8.534732,88.418541 8.102196,88.830643 
	C8.079900,88.677719 8.269338,88.375664 8.717556,87.983101 
z"/>
<path fill="#1F8CFE" opacity="1.000000" stroke="none" 
	d="
M30.703724,65.979668 
	C30.745459,66.154953 30.530880,66.418022 30.102613,66.822571 
	C30.075087,66.665176 30.261248,66.366310 30.703724,65.979668 
z"/>
<path fill="#1F8CFE" opacity="1.000000" stroke="none" 
	d="
M29.703873,66.979614 
	C29.745628,67.154999 29.530960,67.418129 29.102528,67.822769 
	C29.074989,67.665314 29.261219,67.366341 29.703873,66.979614 
z"/>
<path fill="#1F8CFE" opacity="1.000000" stroke="none" 
	d="
M9.717563,86.982986 
	C9.755528,87.155449 9.534695,87.418472 9.102091,87.830643 
	C9.079802,87.677704 9.269282,87.375626 9.717563,86.982986 
z"/>
<path fill="#1F8CFE" opacity="1.000000" stroke="none" 
	d="
M12.714937,83.986130 
	C12.754622,84.159721 12.536683,84.421776 12.107084,84.829796 
	C12.082720,84.675377 12.270017,84.374977 12.714937,83.986130 
z"/>
<path fill="#1F8CFE" opacity="1.000000" stroke="none" 
	d="
M13.714998,82.986046 
	C13.754672,83.159660 13.536676,83.421768 13.106977,83.829880 
	C13.082625,83.675430 13.269978,83.374985 13.714998,82.986046 
z"/>
<path fill="#1F8CFE" opacity="1.000000" stroke="none" 
	d="
M14.715045,81.985977 
	C14.754723,82.159622 14.536695,82.421768 14.106926,82.829941 
	C14.082570,82.675484 14.269955,82.374985 14.715045,81.985977 
z"/>
<path fill="#1F8CFE" opacity="1.000000" stroke="none" 
	d="
M15.715073,80.985901 
	C15.754738,81.159531 15.536678,81.421730 15.106848,81.830002 
	C15.082500,81.675529 15.269924,81.375000 15.715073,80.985901 
z"/>
<path fill="#1F8CFE" opacity="1.000000" stroke="none" 
	d="
M16.714466,79.982033 
	C16.753935,80.154472 16.536358,80.418312 16.106859,80.829254 
	C16.082430,80.675377 16.269926,80.374405 16.714466,79.982033 
z"/>
<path fill="#1F8CFE" opacity="1.000000" stroke="none" 
	d="
M27.691757,68.993454 
	C27.957094,69.096489 27.972265,69.277336 27.992846,69.730530 
	C27.817377,69.998383 27.636503,69.993912 27.184246,69.964890 
	C27.089106,69.650650 27.265348,69.360954 27.691757,68.993454 
z"/>
<path fill="#1F8CFE" opacity="1.000000" stroke="none" 
	d="
M17.704885,78.970520 
	C17.744902,79.141304 17.529268,79.409164 17.101212,79.826866 
	C17.075603,79.673676 17.262421,79.370636 17.704885,78.970520 
z"/>
<path fill="#1F8CFE" opacity="1.000000" stroke="none" 
	d="
M26.710339,69.975296 
	C26.750219,70.150146 26.530554,70.414864 26.096962,70.826607 
	C26.072287,70.670815 26.261538,70.367989 26.710339,69.975296 
z"/>
<path fill="#1F8CFE" opacity="1.000000" stroke="none" 
	d="
M25.710358,70.975250 
	C25.750267,71.150139 25.530598,71.414879 25.096977,71.826653 
	C25.072279,71.670822 25.261530,71.367966 25.710358,70.975250 
z"/>
<path fill="#1F8CFE" opacity="1.000000" stroke="none" 
	d="
M21.712769,74.974594 
	C21.748863,75.148758 21.525356,75.412476 21.084751,75.819107 
	C21.062822,75.662720 21.257994,75.363441 21.712769,74.974594 
z"/>
<path fill="#1F8CFE" opacity="1.000000" stroke="none" 
	d="
M22.710461,73.975319 
	C22.750380,74.150200 22.530762,74.414970 22.097134,74.826660 
	C22.072393,74.670792 22.261660,74.368004 22.710461,73.975319 
z"/>
<path fill="#1F8CFE" opacity="1.000000" stroke="none" 
	d="
M23.710411,72.975227 
	C23.750347,73.150162 23.530678,73.414925 23.097008,73.826668 
	C23.072271,73.670776 23.261538,73.367920 23.710411,72.975227 
z"/>
<path fill="#22B4FF" opacity="1.000000" stroke="none" 
	d="
M82.996384,14.729847 
	C82.817886,14.995110 82.633484,14.993225 82.172813,14.974676 
	C82.076881,14.664233 82.257210,14.370453 82.691254,14.003443 
	C82.960136,14.107708 82.975304,14.285204 82.996384,14.729847 
z"/>
<path fill="#22B4FF" opacity="1.000000" stroke="none" 
	d="
M79.702988,16.994545 
	C79.744827,17.167603 79.535332,17.425682 79.116119,17.820709 
	C79.088142,17.664963 79.269897,17.372265 79.702988,16.994545 
z"/>
<path fill="#1F8CFE" opacity="1.000000" stroke="none" 
	d="
M24.710384,71.975220 
	C24.750317,72.150154 24.530640,72.414909 24.096985,72.826675 
	C24.072262,72.670815 24.261518,72.367928 24.710384,71.975220 
z"/>
<path fill="#22B4FF" opacity="1.000000" stroke="none" 
	d="
M75.703484,20.994678 
	C75.745499,21.168037 75.535843,21.426317 75.116318,21.821735 
	C75.088234,21.665779 75.270027,21.372688 75.703484,20.994678 
z"/>
<path fill="#20ABFF" opacity="1.000000" stroke="none" 
	d="
M70.660042,26.011248 
	C70.764748,26.227331 70.570618,26.475199 70.123886,26.814995 
	C70.089722,26.662134 70.253036,26.374170 70.660042,26.011248 
z"/>
<path fill="#20ABFF" opacity="1.000000" stroke="none" 
	d="
M69.693665,27.000639 
	C69.789383,27.217817 69.584511,27.467007 69.129501,27.812515 
	C69.098923,27.656502 69.270164,27.364441 69.693665,27.000639 
z"/>
<path fill="#20ABFF" opacity="1.000000" stroke="none" 
	d="
M68.693581,28.000902 
	C68.789467,28.218208 68.584740,28.467312 68.129860,28.812561 
	C68.099167,28.656467 68.270256,28.364464 68.693581,28.000902 
z"/>
<path fill="#20ABFF" opacity="1.000000" stroke="none" 
	d="
M67.693535,29.001139 
	C67.789566,29.218575 67.584938,29.467594 67.130127,29.812609 
	C67.099373,29.656446 67.270340,29.364487 67.693535,29.001139 
z"/>
<path fill="#20ABFF" opacity="1.000000" stroke="none" 
	d="
M66.693489,30.001320 
	C66.789619,30.218864 66.585045,30.467840 66.130249,30.812691 
	C66.099434,30.656469 66.270355,30.364531 66.693489,30.001320 
z"/>
<path fill="#20ABFF" opacity="1.000000" stroke="none" 
	d="
M65.693527,31.001387 
	C65.789696,31.219000 65.585114,31.467976 65.130280,31.812784 
	C65.099442,31.656523 65.270355,31.364567 65.693527,31.001387 
z"/>
</svg>