<?xml version="1.0" encoding="utf-8"?>
<!-- Generator: Adobe Illustrator 25.0.1, SVG Export Plug-In . SVG Version: 6.00 Build 0)  -->
<svg version="1.0" id="Layer_1" xmlns="http://www.w3.org/2000/svg" xmlns:xlink="http://www.w3.org/1999/xlink" x="0px" y="0px"
	 viewBox="0 0 4522.7 3242.7" style="enable-background:new 0 0 4522.7 3242.7;" xml:space="preserve">
<style type="text/css">
	.st0{fill:#4FC5C9;}
	.st1{fill:#FFFFFF;}
</style>
<g>
	<path class="st0" d="M2261.3,3001.7c762.4,0,1380.5-618,1380.5-1380.4S3023.7,240.8,2261.3,240.8
		c-762.4,0-1380.5,618.1-1380.5,1380.5S1498.9,3001.7,2261.3,3001.7z M1528.4,1170.2c42.2-25.6,89.4-38.3,132.4-38.3
		c88.4,0,154.4,63,163.6,138.1c8.3,67.8-18.9,126.3-94.4,164.3c-38.5,19.3-57.6,18.5-63.6,9.2c-4-6.2-1.8-16.6,6-23.1
		c70.9-59,72.3-107.5,63.9-175.8c-5.4-44-34.4-72.1-67-72.1c-139.5,0-339.6,311.6-311.7,538.3c10.8,88.3,65.3,190.7,176.8,190.7
		c37.2,0,76.6-10.5,111.7-27.9c61.2-31.1,95.8-55.8,130.6-96.1c-8.5-104.9,81.8-236.4,216.2-236.4c58.1,0,106.3,23.3,112,69.8
		c7.1,58.1-42.6,69.8-61.2,69.8c-16.3,0-42.4-4.6-44.3-19.8c-2-16.2,35.2-7,30.6-44.2c-2.9-23.2-27.1-31.3-50.3-31.3
		c-83.7,0-129.9,116.3-121,188.3c4,32.5,20.7,65.1,51,65.1c24.4,0,59.6-34.9,73.2-86c8.5-34.9,41.7-58.1,66.1-58.1
		c12.8,0,21.6,5.8,23.2,18.6c0.6,4.7,0.1,10.5-1.3,17.5c-2.8,15.1-14.5,65.4-14,75.8c0.5,9.1,5.7,21.6,21.5,21.6
		c12.6,0,58.7-24.8,101.4-62.9c13.4-69.1,30-154.4,31.3-161.2c5.2-28,15.3-56.8,72.2-56.8c11.7,0,20.5,5.8,22.2,19.7
		c0.6,4.7,0.2,10.5-1.3,17.5l-15.9,71.8c50-66.3,127.7-115.1,174.2-115.1c19.7,0,35,10.5,37.6,31.4c1.4,11.6-2,31.3-9.7,53.4
		c-16.6,45.4-35.2,113.5-47.5,172.1c-2.6,12.4,1.7,31.3,24.6,31.3c18.2,0,76.9-22.3,124.3-84.7c-0.3-8.8-0.5-17.7-0.5-26.7
		c0-48.8,3.5-88.4,12.7-117.4c9.3-30.2,47.7-59.3,73.3-59.3c12.8,0,22.1,7,22.1,20.9c0,4.7-1.1,10.5-3.5,16.3
		c-17.5,51.2-26.7,98.8-26.7,146.5c0,26.8,5.8,69.8,11.6,91.8c1.2,4.7,2.3,9.3,7,9.3c8.1,0,62.8-53.5,102.3-118.7
		c-34.9-22.1-54.7-62.7-54.7-112.7c0-83.7,50-126.7,98.9-126.7c38.4,0,73.3,27.9,73.3,83.7c0,34.9-14,74.4-33.7,112.8
		c0,0,8.2,1.2,11.6,1.2c30.3,0,53.5-14,66.3-29.1c5.8-6.6,11.2-11.8,16.4-14.7c38.9-46.8,96-80.6,162.9-80.6
		c57,0,106.2,22.1,111.9,68.6c7.3,59.3-43.6,70.9-61,70.9c-17.5,0-43.7-4.6-45.5-19.7c-1.8-15.2,36.3-7,31.9-43
		c-2.8-23.3-27.3-32.6-50.5-32.6c-77.9,0-131.5,103.4-121.1,187.2c4.2,33.7,19.8,66.3,50,66.3c24.4,0,60.8-34.9,74.3-86
		c8.6-33.7,41.7-58.1,66.1-58.1c11.6,0,21.6,5.8,23.3,19.7c0.9,7-1.9,22.1-14.9,76.8c-5.3,23.2-6.4,43-4.4,59.3
		c4.1,33.7,19.6,55.7,34,68.5c5.2,4.7,8.2,10.5,8.7,13.9c1.1,9.3-6,17.5-17.6,17.5c-3.5,0-8.2,0-11.9-2.3
		c-59.9-24.4-84.7-65.1-91.8-103.5c-23.2,29.1-53.7,45.3-85.1,45.3c-53.4,0-105.7-46.5-113.1-107c-3.1-24.8,0-51.4,8.1-77.7
		c-21.7,13.3-45,20.7-65.9,20.7c-7,0-12.8,0-19.8-1.1c-52.3,75.6-106.9,127.9-148.8,151.1c-17.5,9.4-33.7,13.9-45.3,13.9
		c-9.4,0-19.9-2.3-24.4-10.5c-10.7-17.9-17.9-46.6-22.1-80.2c-55.1,60.1-132.3,90.6-168.5,90.6c-41.9,0-64.8-25.6-69.5-63.9
		c-1.6-12.8-1.2-27.9,1.5-44.2c13.9-86.1,45.7-139.5,43.7-155.8c-0.6-4.6-3.2-6.9-6.7-6.9c-26.8,0-120.7,96.5-134.9,160.5
		l-11.1,51.1c-7.2,36-42.7,59.3-67.1,59.3c-11.6,0-20.5-5.8-22.1-18.6c-0.6-4.7-0.1-10.5,1.4-17.5c0,0,2-10.4,5.2-26.9
		c-50.6,37.7-105.3,63.2-130.9,63.2c-34.9,0-54.6-18.6-61.5-46.5c-23.1,30.2-53.6,46.5-86.2,46.5c-41.5,0-81.5-27.4-100.8-67.9
		c-27.4,30.6-59.9,60.6-98.7,85.4c-57.1,36.1-121,65.1-196.6,65.1c-69.8,0-129-37.2-161.8-67.4c-48.6-45.3-74.3-112.7-81.9-174.4
		C1225.8,1536.5,1344.5,1281.9,1528.4,1170.2z"/>
	<path class="st0" d="M2835.4,1573.6c0-41.8-16.3-60.4-29.1-60.4c-15.2,0-20.9,20.9-20.9,38.4c0,32.6,16.3,66.3,37.2,88.4
		C2830.8,1617.8,2835.4,1595.8,2835.4,1573.6z"/>
	<path class="st1" d="M1331.5,1905c32.8,30.2,92,67.4,161.8,67.4c75.5,0,139.4-29,196.6-65.1c38.8-24.8,71.3-54.7,98.7-85.4
		c-5.5-11.6-9.4-24.4-11-37.9c-0.3-2.2-0.5-4.4-0.7-6.6c-34.8,40.3-69.4,65-130.6,96.1c-35.1,17.5-74.5,27.9-111.7,27.9
		c-111.6,0-166-102.3-176.8-190.7c-27.8-226.7,172.2-538.3,311.7-538.3c32.6,0,61.6,28.1,67,72.1c8.4,68.3,7,116.8-63.9,175.8
		c-7.8,6.5-10,16.9-6,23.1c6,9.3,25.1,10.2,63.6-9.2c75.5-38,102.7-96.5,94.4-164.3c-9.2-75.2-75.2-138.1-163.6-138.1
		c-43,0-90.2,12.8-132.4,38.3c-184,111.6-302.7,366.3-278.8,560.4C1257.2,1792.2,1282.9,1859.7,1331.5,1905z"/>
	<path class="st1" d="M1788.5,1822c19.3,40.5,59.2,67.9,100.8,67.9c32.6,0,63.1-16.3,86.2-46.5c6.9,27.9,26.6,46.5,61.5,46.5
		c25.6,0,80.2-25.5,130.9-63.2c3.1-16,7.4-37.9,12-61.7c-42.7,38.1-88.8,62.9-101.4,62.9c-15.8,0-21-12.5-21.5-21.6
		c-0.5-10.4,11.2-60.7,14-75.8c1.4-7,1.9-12.8,1.3-17.5c-1.6-12.7-10.4-18.6-23.2-18.6c-24.4,0-57.6,23.2-66.1,58.1
		c-13.5,51.1-48.7,86-73.2,86c-30.2,0-47-32.6-51-65.1c-8.9-72.1,37.3-188.3,121-188.3c23.3,0,47.5,8.1,50.3,31.3
		c4.6,37.2-32.6,28-30.6,44.2c1.8,15.2,28,19.8,44.3,19.8c18.6,0,68.3-11.6,61.2-69.8c-5.7-46.5-53.9-69.8-112-69.8
		c-134.3,0-224.7,131.5-216.2,236.4c0.2,2.2,0.4,4.4,0.7,6.6C1779.1,1797.6,1783,1810.3,1788.5,1822z"/>
	<path class="st1" d="M2985.4,1629.5c0,3.5-1.2,9.3-4.7,15.1c-14.3,25.7-35.4,46.5-58.4,60.6c-8.2,26.2-11.2,52.8-8.1,77.7
		c7.5,60.5,59.7,107,113.1,107c31.4,0,61.9-16.3,85.1-45.3c7.1,38.4,31.8,79.1,91.8,103.5c3.8,2.3,8.5,2.3,11.9,2.3
		c11.7,0,18.8-8.1,17.6-17.5c-0.4-3.4-3.4-9.2-8.7-13.9c-14.4-12.8-29.9-34.9-34-68.5c-2-16.3-1-36.1,4.4-59.3
		c13.1-54.7,15.8-69.8,14.9-76.8c-1.7-13.9-11.7-19.7-23.3-19.7c-24.4,0-57.5,24.4-66.1,58.1c-13.5,51.1-49.9,86-74.3,86
		c-30.3,0-45.9-32.6-50-66.3c-10.3-83.7,43.3-187.2,121.1-187.2c23.3,0,47.7,9.3,50.5,32.6c4.4,36-33.7,27.8-31.9,43
		c1.8,15.1,28,19.7,45.5,19.7c17.4,0,68.3-11.6,61-70.9c-5.7-46.5-54.9-68.6-111.9-68.6c-66.9,0-124,33.8-162.9,80.6
		c3.1-1.8,6.2-2.8,9.2-2.8C2983.1,1619,2985.4,1623.6,2985.4,1629.5z"/>
	<path class="st1" d="M2162.6,1853.7c-1.5,7-1.9,12.8-1.4,17.5c1.6,12.8,10.5,18.6,22.1,18.6c24.4,0,59.9-23.3,67.1-59.3l11.1-51.1
		c14.3-64,108.2-160.5,134.9-160.5c3.5,0,6.1,2.3,6.7,6.9c2,16.3-29.8,69.8-43.7,155.8c-2.7,16.3-3.1,31.4-1.5,44.2
		c4.7,38.3,27.6,63.9,69.5,63.9c36.2,0,113.5-30.4,168.5-90.6c-2.2-17.2-3.5-35.6-4.2-54.6c-47.4,62.4-106.1,84.7-124.3,84.7
		c-22.9,0-27.2-18.9-24.6-31.3c12.3-58.6,30.9-126.8,47.5-172.1c7.7-22.1,11.1-41.8,9.7-53.4c-2.6-20.9-17.9-31.4-37.6-31.4
		c-46.5,0-124.2,48.8-174.2,115.1l15.9-71.8c1.5-7,1.9-12.8,1.3-17.5c-1.7-13.9-10.5-19.7-22.2-19.7c-56.9,0-67,28.8-72.2,56.8
		c-1.3,6.7-17.9,92.1-31.3,161.2c-4.6,23.8-8.9,45.6-12,61.7C2164.6,1843.3,2162.6,1853.7,2162.6,1853.7z"/>
	<path class="st1" d="M2618,1879.4c4.6,8.2,15.1,10.5,24.4,10.5c11.6,0,27.8-4.6,45.3-13.9c41.8-23.2,96.5-75.6,148.8-151.1
		c7,1.1,12.8,1.1,19.8,1.1c20.9,0,44.2-7.4,65.9-20.7c23-14.1,44.1-34.9,58.4-60.6c3.5-5.8,4.7-11.6,4.7-15.1
		c0-5.8-2.4-10.5-8.2-10.5c-3,0-6.1,1-9.2,2.8c-5.2,3-10.6,8.2-16.4,14.7c-12.8,15-36,29.1-66.3,29.1c-3.5,0-11.6-1.2-11.6-1.2
		c19.8-38.4,33.7-77.9,33.7-112.8c0-55.8-34.9-83.7-73.3-83.7c-48.8,0-98.9,43-98.9,126.7c0,50,19.8,90.7,54.7,112.7
		c-39.5,65.2-94.2,118.7-102.3,118.7c-4.7,0-5.8-4.7-7-9.3c-5.8-22.1-11.6-65.1-11.6-91.8c0-47.7,9.3-95.3,26.7-146.5
		c2.4-5.8,3.5-11.6,3.5-16.3c0-13.9-9.2-20.9-22.1-20.9c-25.6,0-64,29-73.3,59.3c-9.3,29.1-12.7,68.6-12.7,117.4
		c0,9,0.2,17.9,0.5,26.7c0.7,19,2,37.5,4.2,54.6C2600.2,1832.8,2607.4,1861.5,2618,1879.4z M2785.4,1551.6
		c0-17.4,5.8-38.4,20.9-38.4c12.8,0,29.1,18.6,29.1,60.4c0,22.1-4.7,44.2-12.8,66.3C2801.7,1617.8,2785.4,1584.1,2785.4,1551.6z"/>
</g>
</svg>
