<svg version="1.1" id="Layer_1" xmlns="http://www.w3.org/2000/svg" xmlns:xlink="http://www.w3.org/1999/xlink" x="0px" y="0px"
	 width="100%" viewBox="0 0 252 200" enable-background="new 0 0 252 200" xml:space="preserve">
<path fill="#000000" opacity="1.000000" stroke="none" 
	d="
M155.000000,201.000000 
	C103.758850,201.000000 52.517704,201.000000 1.000000,201.000000 
	C1.000000,171.313019 1.000000,141.625168 1.366689,111.474426 
	C11.490145,116.397362 21.246912,121.783188 31.214687,127.514343 
	C31.950180,126.452988 32.922569,125.049339 32.932156,123.639145 
	C33.083130,101.427193 33.110249,79.214394 33.525558,57.014252 
	C38.952911,59.873329 44.052544,62.664627 49.082027,65.577065 
	C63.497684,73.924759 77.860695,82.363953 92.326057,90.624184 
	C93.577080,91.338562 95.430618,90.997826 97.368942,91.101578 
	C108.435516,84.923698 119.166481,78.841446 129.830627,72.644211 
	C139.227539,67.183411 148.549789,61.594166 157.943329,56.525528 
	C157.987076,68.608078 157.992538,80.226746 157.676178,92.002884 
	C149.869659,96.445183 142.355286,100.679169 134.906815,105.026115 
	C121.855598,112.642838 108.844818,120.328850 95.461166,128.224884 
	C95.070427,139.812271 95.017052,151.160660 95.038605,162.508896 
	C95.040199,163.350922 95.579987,164.191940 96.033958,165.352356 
	C113.311630,175.460587 130.457245,185.194183 147.505188,195.096008 
	C150.227966,196.677460 152.512741,199.013046 155.000000,201.000000 
z"/>
<path fill="#0281CB" opacity="1.000000" stroke="none" 
	d="
M95.817093,127.985825 
	C108.844818,120.328850 121.855598,112.642838 134.906815,105.026115 
	C142.355286,100.679169 149.869659,96.445183 158.026627,91.779457 
	C158.795288,80.016281 158.902679,68.634033 158.942062,57.251541 
	C158.943436,56.856110 158.266037,56.458324 157.905014,56.061642 
	C148.549789,61.594166 139.227539,67.183411 129.830627,72.644211 
	C119.166481,78.841446 108.435516,84.923698 97.022202,90.914589 
	C95.911880,88.919670 95.196388,87.071144 95.166824,85.211716 
	C95.007408,75.184357 95.018166,65.154289 95.294830,54.973480 
	C97.512108,53.860096 99.454674,52.984676 101.289955,51.923672 
	C127.140678,36.978905 152.994843,22.039833 178.791458,7.002079 
	C181.704147,5.304173 184.272156,3.014999 187.000000,1.000000 
	C187.750000,1.000000 188.500000,1.000000 189.633163,1.468606 
	C190.009735,34.589951 189.801941,67.244835 190.150314,99.893791 
	C190.228882,107.256378 189.019547,111.723022 181.553970,115.547676 
	C163.312408,124.892944 145.851883,135.762756 127.714996,145.965027 
	C124.847969,144.675598 122.288910,143.537552 119.847740,142.186523 
	C111.930122,137.804581 104.055725,133.344543 96.074661,128.683563 
	C95.984650,128.452545 95.817093,127.985825 95.817093,127.985825 
z"/>
<path fill="#000000" opacity="1.000000" stroke="none" 
	d="
M128.076950,146.018875 
	C145.851883,135.762756 163.312408,124.892944 181.553970,115.547676 
	C189.019547,111.723022 190.228882,107.256378 190.150314,99.893791 
	C189.801941,67.244835 190.009735,34.589951 190.008163,1.468606 
	C209.354233,1.000000 228.708450,1.000000 248.859451,1.255928 
	C248.410797,2.520593 247.260544,3.685414 245.904297,4.512397 
	C237.910950,9.386410 229.869659,14.181787 221.485977,19.237995 
	C221.085648,30.714483 221.025604,41.956669 221.053238,53.198635 
	C221.054703,53.792469 221.798660,54.384472 222.552231,54.978958 
	C228.829666,51.601360 234.692490,48.111877 240.694870,44.881691 
	C244.693604,42.729767 248.891342,40.947639 253.000000,39.000004 
	C253.000000,50.354229 253.000000,61.708454 252.749969,73.546722 
	C252.339645,74.077644 252.179367,74.124527 251.670059,74.213348 
	C241.686264,79.885132 232.051468,85.514961 221.944031,91.157570 
	C221.302383,103.412003 221.133392,115.653656 220.645508,128.043533 
	C211.705048,133.192917 203.072632,138.175537 194.464493,143.199768 
	C182.629517,150.107346 170.812927,157.046417 158.616333,163.995102 
	C153.822083,161.676788 149.283997,159.527649 145.006363,156.946838 
	C139.257935,153.478699 133.710602,149.677246 128.076950,146.018875 
z"/>
<path fill="#02B0FF" opacity="1.000000" stroke="none" 
	d="
M94.970230,55.125156 
	C95.018166,65.154289 95.007408,75.184357 95.166824,85.211716 
	C95.196388,87.071144 95.911880,88.919670 96.657532,90.960220 
	C95.430618,90.997826 93.577080,91.338562 92.326057,90.624184 
	C77.860695,82.363953 63.497684,73.924759 49.082027,65.577065 
	C44.052544,62.664627 38.952911,59.873329 33.222015,56.911579 
	C32.373154,58.572643 32.029568,60.348545 32.026241,62.125084 
	C31.989220,81.913582 32.031948,101.702278 31.962442,121.490593 
	C31.955788,123.384499 31.337839,125.276260 31.003677,127.169014 
	C21.246912,121.783188 11.490145,116.397362 1.366689,111.005768 
	C1.000000,110.555557 1.000000,110.111107 1.234512,108.992157 
	C1.645095,106.178154 1.972493,104.038818 1.974603,101.899147 
	C2.007783,68.266121 1.999079,34.633057 2.000000,1.000000 
	C2.444444,1.000000 2.888889,1.000000 3.336543,1.251933 
	C5.805828,3.321141 8.122312,5.398613 10.761000,6.915655 
	C38.801323,23.036665 66.892815,39.068668 94.970230,55.125156 
z"/>
<path fill="#000000" opacity="1.000000" stroke="none" 
	d="
M95.294830,54.973480 
	C66.892815,39.068668 38.801323,23.036665 10.761000,6.915655 
	C8.122312,5.398613 5.805828,3.321141 3.669876,1.251933 
	C64.687561,1.000000 125.375122,1.000000 186.531342,1.000000 
	C184.272156,3.014999 181.704147,5.304173 178.791458,7.002079 
	C152.994843,22.039833 127.140678,36.978905 101.289955,51.923672 
	C99.454674,52.984676 97.512108,53.860096 95.294830,54.973480 
z"/>
<path fill="#0381CB" opacity="1.000000" stroke="none" 
	d="
M158.988464,163.972015 
	C170.812927,157.046417 182.629517,150.107346 194.464493,143.199768 
	C203.072632,138.175537 211.705048,133.192917 220.989380,127.806953 
	C221.765823,125.277199 221.945908,123.133339 221.981903,120.987068 
	C222.148727,111.040009 222.275543,101.092285 222.416687,91.144798 
	C232.051468,85.514961 241.686264,79.885132 251.666870,74.670990 
	C252.009506,96.642036 251.979034,118.197479 252.046661,139.752625 
	C252.053192,141.836060 252.667709,143.917587 253.000000,146.000000 
	C253.000000,146.444443 253.000000,146.888901 252.696899,147.380951 
	C240.070984,154.363495 227.697922,161.210968 215.437515,168.254486 
	C198.399612,178.042664 181.432587,187.954727 164.488953,197.905243 
	C163.421600,198.532059 162.818878,199.950073 162.000000,201.000000 
	C161.555557,201.000000 161.111099,201.000000 160.131836,200.630539 
	C159.361343,198.801147 158.925598,197.341721 158.921951,195.881210 
	C158.895325,185.244934 158.955627,174.608444 158.988464,163.972015 
z"/>
<path fill="#000000" opacity="1.000000" stroke="none" 
	d="
M162.468658,201.000000 
	C162.818878,199.950073 163.421600,198.532059 164.488953,197.905243 
	C181.432587,187.954727 198.399612,178.042664 215.437515,168.254486 
	C227.697922,161.210968 240.070984,154.363495 252.696899,147.714294 
	C253.000000,165.612823 253.000000,183.225662 253.000000,201.000000 
	C222.979279,201.000000 192.958298,201.000000 162.468658,201.000000 
z"/>
<path fill="#02B0FE" opacity="1.000000" stroke="none" 
	d="
M158.616318,163.995102 
	C158.955627,174.608444 158.895325,185.244934 158.921951,195.881210 
	C158.925598,197.341721 159.361343,198.801147 159.798523,200.630539 
	C158.611115,201.000000 157.222214,201.000000 155.416656,201.000000 
	C152.512741,199.013046 150.227966,196.677460 147.505188,195.096008 
	C130.457245,185.194183 113.311630,175.460587 96.090973,164.885010 
	C96.043961,152.370667 96.104317,140.642639 96.164680,128.914597 
	C104.055725,133.344543 111.930122,137.804581 119.847740,142.186523 
	C122.288910,143.537552 124.847969,144.675598 127.714996,145.965027 
	C133.710602,149.677246 139.257935,153.478699 145.006363,156.946838 
	C149.283997,159.527649 153.822083,161.676788 158.616318,163.995102 
z"/>
<path fill="#0381CB" opacity="1.000000" stroke="none" 
	d="
M221.844513,19.003647 
	C229.869659,14.181787 237.910950,9.386410 245.904297,4.512397 
	C247.260544,3.685414 248.410797,2.520593 249.328110,1.255928 
	C249.750000,1.000000 250.500000,1.000000 251.614044,1.468565 
	C251.988007,11.378296 251.936401,20.820219 252.052795,30.260071 
	C252.080536,32.510265 252.669296,34.753540 253.000000,37.000000 
	C253.000000,37.444447 253.000000,37.888889 253.000000,38.666672 
	C248.891342,40.947639 244.693604,42.729767 240.694870,44.881691 
	C234.692490,48.111877 228.829666,51.601360 222.489182,54.518471 
	C221.995407,42.372120 221.919968,30.687883 221.844513,19.003647 
z"/>
<path fill="#27B8FF" opacity="1.000000" stroke="none" 
	d="
M1.500000,1.000000 
	C1.999079,34.633057 2.007783,68.266121 1.974603,101.899147 
	C1.972493,104.038818 1.645095,106.178154 1.234512,108.658829 
	C1.000000,73.000000 1.000000,37.000000 1.500000,1.000000 
z"/>
<path fill="#268ED0" opacity="1.000000" stroke="none" 
	d="
M253.000000,145.531342 
	C252.667709,143.917587 252.053192,141.836060 252.046661,139.752625 
	C251.979034,118.197479 252.009506,96.642036 252.015884,74.629036 
	C252.179367,74.124527 252.339645,74.077644 252.749969,74.015381 
	C253.000000,97.687561 253.000000,121.375122 253.000000,145.531342 
z"/>
<path fill="#288FD0" opacity="1.000000" stroke="none" 
	d="
M253.000000,36.531342 
	C252.669296,34.753540 252.080536,32.510265 252.052795,30.260071 
	C251.936401,20.820219 251.988007,11.378296 251.989044,1.468565 
	C252.333328,1.819354 252.951950,2.637011 252.956848,3.458322 
	C253.021561,14.326142 253.000000,25.194477 253.000000,36.531342 
z"/>
<path fill="#8DD4FF" opacity="1.000000" stroke="none" 
	d="
M31.214687,127.514343 
	C31.337839,125.276260 31.955788,123.384499 31.962442,121.490593 
	C32.031948,101.702278 31.989220,81.913582 32.026241,62.125084 
	C32.029568,60.348545 32.373154,58.572643 32.862259,56.899120 
	C33.110249,79.214394 33.083130,101.427193 32.932156,123.639145 
	C32.922569,125.049339 31.950180,126.452988 31.214687,127.514343 
z"/>
<path fill="#9AC1E4" opacity="1.000000" stroke="none" 
	d="
M157.943329,56.525520 
	C158.266037,56.458324 158.943436,56.856110 158.942062,57.251541 
	C158.902679,68.634033 158.795288,80.016281 158.348450,91.621994 
	C157.992538,80.226746 157.987076,68.608078 157.943329,56.525520 
z"/>
<path fill="#A7DCFF" opacity="1.000000" stroke="none" 
	d="
M96.074661,128.683563 
	C96.104317,140.642639 96.043961,152.370667 95.926590,164.566071 
	C95.579987,164.191940 95.040199,163.350922 95.038605,162.508896 
	C95.017052,151.160660 95.070427,139.812271 95.461166,128.224884 
	C95.817093,127.985825 95.984650,128.452545 96.074661,128.683563 
z"/>
<path fill="#8CBBE1" opacity="1.000000" stroke="none" 
	d="
M221.944031,91.157570 
	C222.275543,101.092285 222.148727,111.040009 221.981903,120.987068 
	C221.945908,123.133339 221.765823,125.277199 221.308258,127.658737 
	C221.133392,115.653656 221.302383,103.412003 221.944031,91.157570 
z"/>
<path fill="#8BBAE1" opacity="1.000000" stroke="none" 
	d="
M221.485992,19.237995 
	C221.919968,30.687883 221.995407,42.372120 222.133911,54.516842 
	C221.798660,54.384472 221.054703,53.792469 221.053238,53.198635 
	C221.025604,41.956669 221.085648,30.714483 221.485992,19.237995 
z"/>
</svg>