<?xml version="1.0" standalone="no"?>
<!DOCTYPE svg PUBLIC "-//W3C//DTD SVG 20010904//EN"
 "http://www.w3.org/TR/2001/REC-SVG-20010904/DTD/svg10.dtd">
<svg version="1.0" xmlns="http://www.w3.org/2000/svg"
 width="512.000000pt" height="512.000000pt" viewBox="0 0 512.000000 512.000000"
 preserveAspectRatio="xMidYMid meet">

<g transform="translate(0.000000,512.000000) scale(0.100000,-0.100000)"
fill="#000000" stroke="none">
<path d="M4490 4743 c-94 -4 -130 -12 -130 -28 0 -7 5 -15 11 -17 7 -2 7 -17
-1 -48 -7 -25 -18 -70 -25 -100 -7 -30 -15 -62 -18 -70 -3 -8 -8 -35 -11 -60
-3 -25 -12 -67 -20 -95 -8 -27 -20 -77 -26 -110 -7 -33 -18 -70 -26 -83 -8
-12 -12 -27 -9 -32 3 -5 -3 -27 -15 -49 -11 -22 -20 -56 -20 -76 0 -20 -7 -66
-16 -103 -38 -164 -86 -361 -98 -402 -7 -25 -26 -97 -41 -160 -15 -63 -31
-124 -36 -135 -4 -11 -10 -31 -14 -45 -32 -131 -49 -187 -61 -204 -8 -11 -14
-36 -14 -56 0 -31 -20 -74 -41 -90 -10 -8 -69 -146 -69 -163 0 -20 -30 -77
-41 -77 -5 0 -9 -7 -9 -15 0 -8 -8 -23 -18 -33 -10 -10 -26 -37 -35 -59 -9
-22 -25 -56 -36 -74 -12 -19 -21 -41 -21 -50 0 -9 -12 -27 -27 -41 -16 -14
-35 -34 -44 -44 -9 -11 -29 -31 -45 -45 -52 -48 -58 -58 -45 -86 9 -21 9 -30
-4 -50 -21 -32 -125 -136 -125 -126 -1 4 -7 -7 -15 -25 -8 -17 -21 -32 -31
-32 -10 0 -14 -5 -11 -14 7 -18 -11 -36 -29 -29 -8 3 -18 -5 -24 -22 -10 -27
-130 -154 -130 -138 -1 4 -6 -1 -13 -13 -23 -39 -72 -94 -84 -94 -20 0 -43
-43 -36 -68 4 -18 12 -22 47 -22 23 0 46 4 52 9 5 5 27 14 49 21 48 16 145 64
194 97 87 59 271 235 271 259 0 21 30 74 60 107 11 11 20 27 20 34 0 7 9 18
20 25 11 7 20 20 20 29 0 9 11 33 25 53 16 24 29 61 34 102 17 116 44 165 177
317 15 18 33 73 56 173 10 43 9 62 -6 120 -22 82 -22 101 -2 123 8 9 19 36 26
61 6 25 18 61 27 80 9 19 20 58 24 87 4 29 14 67 23 84 9 18 21 62 27 98 7 36
18 76 26 88 8 11 19 52 24 90 6 37 17 78 24 89 8 12 20 53 26 90 7 38 21 86
31 106 10 21 18 45 18 56 0 38 31 138 47 150 9 6 45 12 80 12 67 0 149 16 171
33 9 7 12 85 10 351 -3 295 -5 341 -18 342 -8 0 -44 -1 -80 -3z"/>
<path d="M3916 4732 c-3 -5 -3 -29 -2 -55 3 -43 0 -49 -21 -46 -20 3 -28 -53
-31 -218 -3 -173 -2 -182 17 -193 28 -14 42 14 32 61 -4 19 -4 45 0 57 5 13
10 57 11 100 1 49 6 81 14 87 8 6 17 45 21 90 7 73 10 80 32 85 39 9 35 27 -6
34 -50 8 -61 8 -67 -2z"/>
<path d="M3910 4201 c0 -5 5 -13 10 -16 6 -3 10 -2 10 4 0 5 -4 13 -10 16 -5
3 -10 2 -10 -4z"/>
<path d="M2594 3364 c-16 -21 -60 -71 -99 -110 -38 -39 -96 -99 -128 -132 -32
-34 -62 -62 -67 -62 -6 0 -16 -11 -22 -25 -6 -14 -15 -25 -19 -25 -5 0 -35
-24 -66 -54 -32 -30 -67 -63 -78 -73 -10 -10 -58 -51 -105 -91 -47 -40 -102
-90 -124 -110 -21 -20 -43 -37 -48 -37 -5 0 -13 -6 -17 -14 -5 -8 -35 -29 -68
-46 -32 -18 -58 -36 -58 -41 0 -5 14 -15 30 -24 17 -8 33 -19 36 -24 10 -13
100 -27 136 -20 18 3 50 15 70 25 21 11 42 19 49 19 6 0 18 7 25 17 8 9 28 22
44 30 45 20 161 106 235 172 36 32 75 63 87 70 16 8 25 25 29 52 4 23 17 53
30 69 13 15 24 31 24 35 0 4 14 23 30 42 17 18 30 40 30 47 0 7 8 20 18 30 11
9 25 35 31 58 7 23 19 51 27 64 17 25 21 171 6 186 -6 6 -20 -4 -38 -28z"/>
<path d="M2138 3293 c-15 -18 13 -17 38 1 18 14 18 15 -4 13 -13 -1 -28 -7
-34 -14z"/>
<path d="M2073 3245 c-3 -9 -3 -19 1 -22 8 -9 37 18 30 28 -8 14 -24 11 -31
-6z"/>
<path d="M2023 3203 c-7 -2 -13 -11 -13 -20 0 -20 34 -12 38 10 3 17 -3 20
-25 10z"/>
<path d="M1943 3138 c-12 -13 -38 -36 -58 -53 -81 -67 -98 -81 -128 -108 -18
-15 -36 -32 -42 -38 -5 -5 -22 -22 -37 -36 -26 -24 -38 -63 -20 -63 4 1 61 52
126 115 66 63 128 117 138 121 10 3 18 14 18 25 0 12 7 19 18 19 19 0 42 18
42 32 0 17 -37 7 -57 -14z"/>
<path d="M3423 3123 c-9 -16 -100 -111 -202 -213 -108 -107 -185 -191 -183
-199 3 -12 1 -12 -10 -3 -12 9 -23 2 -60 -38 -25 -28 -50 -50 -55 -50 -4 0
-13 -10 -18 -22 -6 -13 -20 -24 -33 -26 -12 -2 -20 -8 -17 -13 4 -5 -5 -14
-19 -20 -14 -7 -26 -21 -28 -33 -2 -15 -9 -20 -26 -18 -16 2 -25 -4 -31 -21
-5 -13 -21 -31 -35 -41 -15 -9 -24 -21 -21 -26 4 -6 -5 -10 -18 -10 -19 0 -28
-8 -36 -31 -7 -21 -16 -29 -25 -26 -8 3 -20 -1 -26 -8 -7 -8 -16 -13 -20 -10
-10 6 -22 -24 -15 -35 3 -5 12 -7 20 -4 8 4 27 -8 45 -28 27 -29 36 -33 83
-33 85 0 218 76 381 217 86 75 170 167 187 206 10 23 23 48 29 55 59 72 80
101 80 113 0 7 8 18 18 23 10 5 24 29 31 53 7 24 20 51 28 60 28 31 30 208 3
208 -5 0 -17 -12 -27 -27z"/>
<path d="M3037 3093 c-12 -12 -7 -22 8 -17 8 4 15 10 15 15 0 11 -14 12 -23 2z"/>
<path d="M2943 3030 c-3 -11 -12 -20 -20 -20 -8 0 -24 -11 -36 -23 -12 -13
-27 -26 -33 -28 -15 -6 -83 -59 -110 -86 -12 -13 -26 -23 -32 -23 -7 0 -19
-11 -28 -25 -9 -14 -22 -25 -28 -25 -7 0 -18 -11 -26 -24 -7 -13 -21 -27 -32
-29 -11 -3 -22 -14 -25 -25 -3 -13 -17 -22 -38 -26 -18 -4 -36 -13 -39 -21 -9
-25 -25 -17 -40 20 -8 19 -19 35 -24 35 -6 0 -17 -18 -25 -39 -9 -22 -21 -42
-27 -46 -8 -5 -8 -11 1 -21 8 -10 16 -11 32 -3 17 10 23 7 38 -12 l17 -23 54
46 c29 26 76 68 103 93 28 26 96 85 152 132 56 47 100 90 97 94 -3 5 3 9 14 9
10 0 30 12 45 28 14 15 36 35 49 44 l23 17 -28 1 c-21 0 -30 -6 -34 -20z"/>
<path d="M3707 2793 c-4 -3 -7 -15 -7 -25 0 -10 -7 -18 -15 -18 -18 0 -35 -31
-35 -64 0 -13 -7 -31 -15 -40 -8 -8 -15 -25 -14 -38 l0 -23 10 24 c5 14 18 31
29 38 10 7 21 27 25 43 4 17 18 43 31 57 13 14 24 32 24 39 0 15 -22 19 -33 7z"/>
<path d="M3216 2343 c-11 -23 -46 -61 -89 -96 -190 -151 -335 -295 -452 -445
-20 -25 -110 -126 -137 -153 -16 -15 -28 -32 -28 -38 0 -6 -4 -11 -8 -11 -5 0
-36 -26 -70 -57 -240 -227 -335 -312 -354 -318 -9 -4 -20 -15 -23 -26 -4 -10
-12 -19 -19 -19 -7 0 -21 -10 -33 -22 -11 -13 -37 -36 -58 -53 -22 -16 -46
-37 -55 -45 -9 -8 -38 -33 -65 -54 -28 -22 -99 -81 -160 -131 -60 -50 -123
-97 -139 -104 -24 -10 -27 -14 -15 -22 23 -14 97 -11 111 6 7 8 58 54 113 102
55 48 116 102 135 119 19 17 85 75 145 129 61 54 117 105 126 114 9 9 54 50
100 91 75 67 149 137 359 340 80 77 137 120 161 120 19 0 73 44 204 169 44 42
114 105 155 141 131 114 143 124 183 163 22 20 43 37 48 37 5 0 9 5 9 12 0 9
-3 9 -12 0 -7 -7 -27 -12 -45 -12 -37 0 -53 21 -53 69 0 42 -13 39 -34 -6z"/>
<path d="M3385 2320 c-3 -5 1 -10 9 -10 8 0 18 5 21 10 3 6 -1 10 -9 10 -8 0
-18 -4 -21 -10z"/>
<path d="M3380 2175 c-14 -17 -5 -35 19 -35 25 0 32 10 20 31 -12 23 -22 24
-39 4z"/>
<path d="M1180 1570 c0 -5 5 -10 10 -10 6 0 10 5 10 10 0 6 -4 10 -10 10 -5 0
-10 -4 -10 -10z"/>
<path d="M880 1309 c0 -5 5 -7 10 -4 6 3 10 8 10 11 0 2 -4 4 -10 4 -5 0 -10
-5 -10 -11z"/>
<path d="M830 1265 c-10 -12 -10 -15 4 -15 9 0 16 7 16 15 0 8 -2 15 -4 15 -2
0 -9 -7 -16 -15z"/>
<path d="M765 1210 c-3 -5 3 -10 14 -10 12 0 21 5 21 10 0 6 -6 10 -14 10 -8
0 -18 -4 -21 -10z"/>
<path d="M720 1159 c0 -5 5 -7 10 -4 6 3 10 8 10 11 0 2 -4 4 -10 4 -5 0 -10
-5 -10 -11z"/>
<path d="M597 1073 c-12 -11 -8 -45 5 -41 17 6 30 48 14 48 -7 0 -16 -3 -19
-7z"/>
</g>
</svg>
